<svg version="1" xmlns="http://www.w3.org/2000/svg" width="933.333" height="933.333" viewBox="0 0 700.000000 700.000000"><path d="M643.5 24.7c-11.5.5-45.1 4.2-58.5 6.4-76.5 12.5-140.8 40.8-196 86.2-12.7 10.5-41.2 39.6-52.1 53.2-21.2 26.5-40.3 56.2-54 83.8-2.4 4.8-4.7 8.7-5 8.7-.4 0-3.6-2.6-7.1-5.8C210 202.3 141 165.6 62.5 146.5c-14.9-3.7-30.4-6.7-57.2-11.1l-3.3-.5v13.2c0 12.1.5 15.9 6.6 47.3 11.2 58.1 16.9 81.1 29.8 120.1 28.6 86.2 70.3 170.9 127.5 259 17.5 26.9 41.5 61.5 50 71.9 11.3 14 28 24.5 44.5 28.1 11.6 2.6 33.6 1.6 46.5-1.9 37.1-10.3 67.3-38.3 80.4-74.6 9.1-25.3 11.5-53.5 8.5-100.2-2.1-32.2-1.4-33.6 25.2-58.3C541.9 327.7 629.7 205 682.6 73.7 686 65.4 698 26.8 698 24.4c0-.4-43-.2-54.5.3zM632 75.3c-55.7 28-98.4 59.3-142 104.3-17.5 18.1-25 26.9-22.5 26.1 1.1-.3 6.7-1.8 12.5-3.2 5.8-1.5 16-4.2 22.8-6.2 6.8-1.9 12.5-3.3 12.7-3.1.2.1.6 1.4.9 2.8.5 2.1-.1 3-3.7 5.6-21.5 15.7-31.7 22.7-44.9 30.7-19.5 11.8-27.9 18.1-40.9 30.5-15.3 14.7-29.4 32.7-41.6 53.2-2.8 4.7-16.4 29.9-30.3 56-50.8 95.6-70.4 131.4-74.4 135.8-2.2 2.4-5.8 5.3-7.9 6.4l-3.9 1.9-5.7-2.2c-9.9-3.9-21.3-10.2-25.1-13.8-6.4-6.2-20.1-41.4-37.6-96.4-5.3-16.6-11.3-33.8-13.4-38.2-10.7-22.4-25.8-37.8-47.6-48.8-5.6-2.8-14.8-9.3-23.3-16.4-1.3-1.1 2-1 16.4.3 8.8.8 16.5 1.3 17.3 1.2.7-.2-30.9-35.2-70.2-77.8-39.2-42.6-70.9-77.7-70.4-77.9 1.8-.6 17.1 7.7 26.2 14.3 46.8 33.7 127.2 111.1 174.4 167.9l13.2 15.8V300h2.9c2.6 0 3.1.6 6.1 7.7 5.8 13.8 6.1 15.3 6.1 25.8-.1 12.3 2.2 26.2 6.1 37.5 1.6 4.7 8.9 20.6 16.3 35.5 7.3 14.8 14.1 29.5 15 32.5 1 3 2.1 5.8 2.4 6.3.7.7 56.6-98.7 127.2-226.1 23.4-42.2 33.8-60.1 34.9-59.9 1.2.2 1.4 1.6 1.3 6.5-.3 5.7-.1 6.2 1.5 5.3.9-.6 11.4-8.7 23.2-18.1 53.4-42.7 72.3-54.1 112.8-68.6 18.3-6.5 69.7-20.9 76.2-21.3.8-.1-9.5 5.4-23 12.2z"/></svg>