<?xml version="1.0" encoding="UTF-8" standalone="no"?>
<!-- Generator: Adobe Illustrator 19.0.0, SVG Export Plug-In . SVG Version: 6.00 Build 0)  -->

<svg
   xmlns:dc="http://purl.org/dc/elements/1.1/"
   xmlns:cc="http://creativecommons.org/ns#"
   xmlns:rdf="http://www.w3.org/1999/02/22-rdf-syntax-ns#"
   xmlns:svg="http://www.w3.org/2000/svg"
   xmlns="http://www.w3.org/2000/svg"
   xmlns:sodipodi="http://sodipodi.sourceforge.net/DTD/sodipodi-0.dtd"
   xmlns:inkscape="http://www.inkscape.org/namespaces/inkscape"
   version="1.1"
   id="Layer_1"
   x="0px"
   y="0px"
   viewBox="0 0 998.73718 945.23502"
   xml:space="preserve"
   sodipodi:docname="VegItNowLogoLeafSticker.svg"
   width="998.73718"
   height="945.23505"
   inkscape:version="0.92.4 5da689c313, 2019-01-14"><metadata
   id="metadata39"><rdf:RDF><cc:Work
       rdf:about=""><dc:format>image/svg+xml</dc:format><dc:type
         rdf:resource="http://purl.org/dc/dcmitype/StillImage" /><dc:title></dc:title></cc:Work></rdf:RDF></metadata><defs
   id="defs37" /><sodipodi:namedview
   pagecolor="#ffffff"
   bordercolor="#666666"
   borderopacity="1"
   objecttolerance="10"
   gridtolerance="10"
   guidetolerance="10"
   inkscape:pageopacity="0"
   inkscape:pageshadow="2"
   inkscape:window-width="1280"
   inkscape:window-height="968"
   id="namedview35"
   showgrid="false"
   inkscape:pagecheckerboard="true"
   fit-margin-top="0"
   fit-margin-left="0"
   fit-margin-right="0"
   fit-margin-bottom="0"
   inkscape:zoom="0.23790323"
   inkscape:cx="420.226"
   inkscape:cy="519.31693"
   inkscape:window-x="0"
   inkscape:window-y="0"
   inkscape:window-maximized="1"
   inkscape:current-layer="Layer_1" />
<style
   type="text/css"
   id="style2">
	.st0{fill:#FFFFFF;}
	.st1{fill:#3DA347;}
	.st2{fill:#2F6D35;}
</style>
<g
   id="XMLID_69_"
   transform="matrix(20.068684,0,0,20.068684,-121.91726,-295.00965)">
			<path
   id="XMLID_74_"
   class="st2"
   d="m 9,24.7 c 6.7,0.9 12.4,3.5 17.3,8.1 5.4,-11 14.4,-15.3 26.4,-15.1 -0.4,1.2 -0.6,2.2 -1,3.1 -3.9,9.5 -10,17.3 -17.6,24.1 -0.4,0.4 -0.6,1.2 -0.6,1.7 0.2,2.6 0.4,5.1 -0.6,7.6 -1.2,2.8 -4,4.7 -7.1,4.5 -1.7,-0.1 -3,-1 -4,-2.4 C 17,49.6 13.1,42.5 10.7,34.6 9.9,32 9.4,29.2 8.9,26.5 8.9,26.1 9,25.5 9,24.7 Z M 26.4,44.4 C 25.8,42 23.6,40 23.9,37 24,36.4 23.5,35.8 23.3,35.2 c -0.1,0 -0.2,0 -0.3,0 0,0.9 0,1.7 0,2.8 C 19.1,33 11.3,25.8 9.5,25.5 c 2.9,3.2 5.9,6.4 9.1,9.8 -1,-0.1 -1.4,-0.1 -2.3,-0.2 0.7,0.5 1,0.8 1.3,1 2,0.9 3.1,2.5 3.7,4.5 0.7,2.3 1.4,4.5 2.4,6.7 0.3,0.7 1.4,1 2.1,1.3 0.2,0.1 0.9,-0.4 1.1,-0.8 1.9,-3.5 3.8,-7 5.6,-10.5 1.4,-2.8 3.2,-5.1 6.1,-6.6 1,-0.6 2,-1.4 2.9,-2.1 0,-0.1 -0.1,-0.2 -0.1,-0.3 -1,0.3 -2,0.6 -3.2,0.9 3.4,-4 7.4,-7 12.1,-9 -2.6,0.6 -5.2,1.3 -7.5,2.5 -2.3,1.2 -4.2,3.1 -6.1,4.5 0,0 0.1,-0.4 0.1,-0.9 -0.1,0 -0.1,0 -0.2,-0.1 -3.4,6.1 -6.8,12.2 -10.2,18.2 z"
   inkscape:connector-curvature="0"
   style="fill:#2f6d35" />
			<path
   id="XMLID_49_"
   class="st0"
   d="m 51.9,17.7 c 0.3,0 0.6,0 0.9,0 -0.4,1.2 -0.6,2.2 -1,3.1 -3.9,9.5 -10,17.3 -17.6,24.1 -0.4,0.4 -0.6,1.2 -0.6,1.7 0.2,2.6 0.4,5.1 -0.6,7.6 -1.1,2.7 -3.8,4.5 -6.8,4.5 -0.1,0 -0.2,0 -0.3,0 -1.7,-0.1 -3,-1 -4,-2.4 C 17.1,49.6 13.2,42.5 10.8,34.6 10,32 9.5,29.2 9,26.5 8.9,26 9,25.4 9,24.6 c 6.7,0.9 12.4,3.5 17.3,8.1 5.3,-10.6 14,-15 25.6,-15 m -15.3,9.5 c 0,0 0.1,-0.4 0.1,-0.9 -0.1,0 -0.1,0 -0.2,-0.1 C 33.1,32.3 29.7,38.4 26.3,44.4 25.8,42 23.6,40 23.9,37 24,36.4 23.5,35.8 23.3,35.2 c -0.1,0 -0.2,0 -0.3,0 0,0.9 0,1.7 0,2.8 C 19.1,33 11.3,25.8 9.5,25.5 c 2.9,3.2 5.9,6.4 9.1,9.8 -1,-0.1 -1.4,-0.1 -2.3,-0.2 0.7,0.5 1,0.8 1.3,1 2,0.9 3.1,2.5 3.7,4.5 0.7,2.3 1.4,4.5 2.4,6.7 0.3,0.7 1.4,1 2.1,1.3 0,0 0,0 0.1,0 0.3,0 0.8,-0.4 1,-0.8 1.9,-3.5 3.8,-7 5.6,-10.5 1.4,-2.8 3.2,-5.1 6.1,-6.6 1,-0.6 2,-1.4 2.9,-2.1 0,-0.1 -0.1,-0.2 -0.1,-0.3 -1,0.3 -2,0.6 -3.2,0.9 3.4,-4 7.4,-7 12.1,-9 -2.6,0.6 -5.2,1.3 -7.5,2.5 -2.3,1.2 -4.3,3.1 -6.2,4.5 M 51.9,14.7 c -12,0 -20.7,4.4 -26.3,13.4 -4.7,-3.5 -10,-5.6 -16.1,-6.4 -0.1,0 -0.3,0 -0.4,0 -0.7,0 -1.4,0.3 -2,0.7 -0.6,0.6 -1,1.4 -1,2.3 0,0.2 0,0.4 0,0.6 0,0.5 -0.1,1.2 0.1,1.9 0.1,0.7 0.3,1.3 0.4,2 0.4,2.1 0.8,4.2 1.5,6.4 2.3,7.5 6.1,14.8 11.6,22.6 1.6,2.3 3.8,3.5 6.3,3.6 0.1,0 0.3,0 0.4,0 4.1,0 7.9,-2.6 9.5,-6.4 1.3,-3 1.1,-6 0.9,-8.7 8.3,-7.5 14.2,-15.6 17.9,-24.8 0.3,-0.8 0.5,-1.5 0.7,-2.3 0.1,-0.3 0.2,-0.7 0.3,-1.1 0.3,-0.9 0.1,-1.9 -0.4,-2.6 -0.5,-0.7 -1.4,-1.2 -2.4,-1.2 -0.4,0 -0.7,0 -1,0 z"
   inkscape:connector-curvature="0"
   style="fill:#ffffff" />
		</g>
</svg>