<?xml version="1.0" encoding="UTF-8" standalone="no"?>
<!-- Generator: Adobe Illustrator 19.0.0, SVG Export Plug-In . SVG Version: 6.00 Build 0)  -->

<svg
   xmlns:dc="http://purl.org/dc/elements/1.1/"
   xmlns:cc="http://creativecommons.org/ns#"
   xmlns:rdf="http://www.w3.org/1999/02/22-rdf-syntax-ns#"
   xmlns:svg="http://www.w3.org/2000/svg"
   xmlns="http://www.w3.org/2000/svg"
   xmlns:sodipodi="http://sodipodi.sourceforge.net/DTD/sodipodi-0.dtd"
   xmlns:inkscape="http://www.inkscape.org/namespaces/inkscape"
   version="1.1"
   id="Layer_1"
   x="0px"
   y="0px"
   viewBox="0 0 996.70183 934.07611"
   xml:space="preserve"
   sodipodi:docname="vegitnowLeaf.svg"
   width="996.70184"
   height="934.07611"
   inkscape:export-filename="/home/tzanis/Downloads/vegitnowLeafLogo.png"
   inkscape:export-xdpi="96"
   inkscape:export-ydpi="96"
   inkscape:version="0.92.4 5da689c313, 2019-01-14"><metadata
   id="metadata11"><rdf:RDF><cc:Work
       rdf:about=""><dc:format>image/svg+xml</dc:format><dc:type
         rdf:resource="http://purl.org/dc/dcmitype/StillImage" /><dc:title></dc:title></cc:Work></rdf:RDF></metadata><defs
   id="defs9" /><sodipodi:namedview
   pagecolor="#ffffff"
   bordercolor="#666666"
   borderopacity="1"
   objecttolerance="10"
   gridtolerance="10"
   guidetolerance="10"
   inkscape:pageopacity="0"
   inkscape:pageshadow="2"
   inkscape:window-width="1280"
   inkscape:window-height="968"
   id="namedview7"
   showgrid="false"
   inkscape:zoom="0.35355339"
   inkscape:cx="-299.23314"
   inkscape:cy="108.6539"
   inkscape:window-x="0"
   inkscape:window-y="0"
   inkscape:window-maximized="1"
   inkscape:current-layer="Layer_1"
   fit-margin-top="0"
   fit-margin-left="0"
   fit-margin-right="0"
   fit-margin-bottom="0" />
<style
   type="text/css"
   id="style2">
	.st0{fill:#2F6D35;}
</style>
<g
   id="g28"
   style="display:inline"
   transform="matrix(1.0374726,0,0,1.0374726,-13.108149,-20.51683)"><path
     inkscape:connector-curvature="0"
     id="path23"
     d="M 13.220689,173.43218 C 161.27593,192.27558 286.00126,249.70307 393.6778,350.20117 512.122,108.82626 710.4263,14.609286 973.33652,19.993113 965.26078,46.014944 960.77426,67.550252 952.69852,87.290951 868.35189,295.4656 733.75621,466.85076 567.75488,614.90601 c -8.97305,8.07574 -13.45957,26.02183 -12.56226,38.58409 4.48652,56.53019 8.97304,113.06037 -13.45957,166.89864 -26.02183,61.01671 -87.93584,102.29272 -154.33638,99.6008 -37.68679,-1.79461 -66.40053,-21.53531 -87.93584,-52.04366 C 193.5789,721.68524 106.54036,565.55426 53.599392,392.37449 35.653302,334.947 25.782952,273.93029 14.117993,214.70819 11.42608,202.14593 13.220689,189.58367 13.220689,173.43218 Z"
     style="display:inline;fill:#2f6d35;stroke-width:8.97304535" /><path
     inkscape:connector-curvature="0"
     id="XMLID_128_"
     d="m 393.6778,605.03566 c -12.56226,-52.04367 -61.0167,-97.8062 -54.73557,-163.30943 0.8973,-12.56226 -8.97305,-26.91913 -13.45957,-40.3787 -2.69191,0 -4.48652,0.89731 -7.17844,0.89731 0,18.84339 0,37.68679 0,61.0167 C 233.9576,354.6877 61.675133,195.8648 22.193734,188.68636 c 63.70862,69.09245 129.211846,139.97951 199.201606,216.25039 -21.53531,-1.79461 -31.40566,-2.69191 -51.14636,-4.48652 14.35687,10.76765 21.53531,17.94609 29.61105,21.53531 43.96792,19.74069 67.29784,53.83827 80.7574,99.6008 15.25418,49.35175 30.50836,98.70349 52.04367,146.26063 6.28113,14.35688 29.61105,22.43262 46.65983,29.61105 5.38383,1.79461 18.8434,-8.97304 23.32992,-17.04878 41.27601,-76.27089 82.55201,-152.54177 122.93072,-229.70996 31.40566,-61.01671 70.88705,-112.16306 132.80107,-145.36333 22.43261,-12.56226 43.07061,-29.61105 64.60592,-44.86523 -0.8973,-1.79461 -1.79461,-4.48652 -2.69191,-6.28113 -22.43262,6.28113 -43.96792,12.56226 -69.98976,18.8434 C 724.78317,185.09714 811.82171,119.59391 915.01173,74.728688 858.48154,88.188256 801.05405,102.54513 750.805,129.46426 c -50.24905,26.91914 -92.42236,67.29784 -133.69837,97.8062 0,0 1.79461,-9.87035 2.69191,-18.8434 -1.79461,0 -2.69191,-0.8973 -4.48652,-0.8973 -72.68167,131.90376 -148.05525,265.60213 -221.63422,397.5059 z"
     style="display:inline;fill:#ffffff;stroke-width:8.97304535" /></g>
</svg>