<?xml version="1.0" encoding="UTF-8" standalone="no"?>
<!-- Generator: Adobe Illustrator 19.0.0, SVG Export Plug-In . SVG Version: 6.00 Build 0)  -->

<svg
   xmlns:dc="http://purl.org/dc/elements/1.1/"
   xmlns:cc="http://creativecommons.org/ns#"
   xmlns:rdf="http://www.w3.org/1999/02/22-rdf-syntax-ns#"
   xmlns:svg="http://www.w3.org/2000/svg"
   xmlns="http://www.w3.org/2000/svg"
   xmlns:sodipodi="http://sodipodi.sourceforge.net/DTD/sodipodi-0.dtd"
   xmlns:inkscape="http://www.inkscape.org/namespaces/inkscape"
   version="1.1"
   id="Layer_1"
   x="0px"
   y="0px"
   viewBox="0 0 997.95172 298.42565"
   xml:space="preserve"
   sodipodi:docname="VegItNow_Logo gia Footer.svg"
   width="997.95172"
   height="298.42566"
   inkscape:version="0.92.4 5da689c313, 2019-01-14"><metadata
   id="metadata39"><rdf:RDF><cc:Work
       rdf:about=""><dc:format>image/svg+xml</dc:format><dc:type
         rdf:resource="http://purl.org/dc/dcmitype/StillImage" /><dc:title></dc:title></cc:Work></rdf:RDF></metadata><defs
   id="defs37" /><sodipodi:namedview
   pagecolor="#ffffff"
   bordercolor="#666666"
   borderopacity="1"
   objecttolerance="10"
   gridtolerance="10"
   guidetolerance="10"
   inkscape:pageopacity="0"
   inkscape:pageshadow="2"
   inkscape:window-width="1280"
   inkscape:window-height="968"
   id="namedview35"
   showgrid="false"
   inkscape:pagecheckerboard="true"
   fit-margin-top="0"
   fit-margin-left="0"
   fit-margin-right="0"
   fit-margin-bottom="0"
   inkscape:zoom="0.23790323"
   inkscape:cx="787.62036"
   inkscape:cy="-92.372184"
   inkscape:window-x="0"
   inkscape:window-y="0"
   inkscape:window-maximized="1"
   inkscape:current-layer="Layer_1" />
<style
   type="text/css"
   id="style2">
	.st0{fill:#FFFFFF;}
	.st1{fill:#3DA347;}
	.st2{fill:#2F6D35;}
</style>
<g
   id="XMLID_50_"
   transform="matrix(4.0880227,0,0,4.0880227,-8.110637,-43.333041)">
	<path
   id="XMLID_83_"
   class="st0"
   d="m 243.1,43.2 c -1.7,-1.2 -3.7,-1.8 -5.8,-1.8 0,0 0,0 0,0 -3.6,0 -6.9,1.9 -9,5.1 -1.1,-2.5 -3.6,-4.4 -6.5,-4.9 -0.4,-0.1 -0.8,-0.1 -1.2,-0.1 -2.5,0 -4.2,1.2 -5.4,2.4 -0.2,-0.1 -0.4,-0.1 -0.6,-0.2 -0.8,-0.2 -1.5,-0.4 -2.1,-0.5 -0.2,0 -0.5,-0.1 -0.7,-0.2 -2,-1 -4.2,-1.5 -6.6,-1.5 -1,0 -1.9,0.1 -2.8,0.3 -0.1,-0.6 -0.3,-1.1 -0.5,-1.7 -0.9,-2 -2.5,-3.5 -4.5,-4.3 -0.9,-0.4 -1.9,-0.5 -3,-0.5 -3.5,0 -6.9,2.2 -8.8,5.7 l -0.1,0.1 c -0.1,0.2 -0.3,0.6 -0.5,1 -0.7,-0.4 -1.4,-0.8 -2.1,-1.1 -2.3,-0.9 -4.5,-1.4 -6.6,-1.4 -3.4,0 -6.3,1.1 -8.6,3.3 -1,-0.4 -2.3,-0.9 -3.7,-1 -0.8,-0.1 -1.6,-0.1 -2.4,-0.1 -1.9,0 -3.7,0.2 -5.1,0.4 -1.8,0.2 -3.6,0.5 -5.3,0.9 -0.7,-3.2 -3.3,-5.5 -5.9,-6.2 -0.3,-0.1 -0.6,-0.2 -0.9,-0.3 -1.6,-0.5 -3.6,-1.1 -5.9,-1.1 h -0.2 c -3.3,0.1 -6.6,0.4 -9.7,0.6 -0.9,0.1 -1.7,0.2 -2.5,0.2 -1.7,0.1 -2.9,0.7 -3.5,1 h -0.1 c -2,0.8 -3.5,2.6 -4,4.6 -0.1,0.4 -0.2,0.7 -0.2,1.1 -1.8,-1 -3.9,-1.6 -6.2,-1.6 -2.4,0 -4.7,0.6 -6.7,1.8 -0.5,-0.3 -1.1,-0.5 -1.7,-0.7 -0.1,0 -0.3,-0.1 -0.5,-0.2 -1,-0.3 -2.4,-0.9 -4.3,-0.9 h -0.2 c -2.3,0.1 -4.6,0.2 -6.8,0.3 C 92,41 91.6,40.2 91,39.5 c 0,0 0,-0.1 0,-0.1 -0.4,-0.5 -1.1,-1.6 -2.4,-2.4 l -0.9,-0.6 c -1.6,-1 -3.2,-2.1 -5,-3.1 -1.7,-1 -3.4,-1.4 -5,-1.4 -3.6,0 -6.6,2.1 -8.2,5.8 -0.1,0.2 -0.2,0.4 -0.3,0.6 -0.2,-0.3 -0.5,-0.6 -0.7,-0.9 -2.9,-3.5 -5.8,-6 -9.2,-7.7 -1,-0.5 -2,-0.7 -3.1,-0.7 -0.2,0 -0.3,0 -0.5,0 1,-1.8 1.8,-3.7 2.6,-5.6 0.4,-1 0.6,-1.8 0.9,-2.7 0.1,-0.3 0.2,-0.6 0.3,-1 0.6,-2.1 0.3,-4.4 -1,-6.2 -1.3,-1.8 -3.3,-2.9 -5.5,-2.9 -0.4,0 -0.7,0 -1.1,0 -11.8,0 -21,4 -27.3,11.9 C 20.2,19.9 15.4,18.3 10,17.6 9.7,17.6 9.4,17.5 9.1,17.5 7.4,17.5 5.8,18.1 4.5,19.2 2.9,20.8 2,22.7 2,24.7 c 0,0.1 0,0.2 0,0.3 0,0.7 -0.1,1.8 0.2,3 0.1,0.6 0.3,1.3 0.4,1.9 0.4,2.2 0.9,4.5 1.6,6.8 2.4,7.9 6.4,15.6 12.1,23.7 2.3,3.3 5.7,5.1 9.4,5.3 0.2,0 0.4,0 0.6,0 5.7,0 11,-3.6 13.2,-8.8 1.3,-3.1 1.4,-6.2 1.3,-8.6 3.2,-3 6,-6.1 8.4,-9.3 0.1,0.2 0.1,0.4 0.2,0.6 0.3,1 0.5,1.9 0.6,2.7 0.2,1.1 0.3,2.2 0.4,3.4 0.2,1.8 0.3,3.6 0.7,5.5 0.9,5 2,10.2 3.2,15.8 0.8,3.4 1.7,6.8 2.9,10.1 1.3,3.9 4.8,6.5 8.8,6.5 1.7,0 3.3,-0.4 4.9,-1.2 4.3,-2.3 6.2,-6.1 7.2,-8.8 0.6,-1.6 1.3,-3.4 2,-5.1 0.3,1.5 1.1,2.8 2.2,3.8 1.3,1.1 2.9,1.7 4.6,1.7 0.3,0 0.6,0 0.9,-0.1 l 3.1,-0.4 6.6,-0.9 c 2,-0.3 4.5,-0.8 6.8,-2.2 0.1,0.1 0.3,0.2 0.4,0.4 1.1,0.9 4.6,3.6 9.3,3.6 0.6,0 1.2,0 1.8,-0.1 1.5,-0.2 2.9,-0.7 4.3,-1.5 0.8,0.4 1.6,0.6 2.5,0.8 2.1,0.5 4.4,0.7 6.9,0.8 1,0 2,0.1 3,0.1 4.9,0 9.7,-0.4 14.3,-1.3 h 0.1 c 1,-0.2 1.9,-0.4 2.7,-0.8 1.6,1.3 3.6,2 5.7,2 1,0 2,-0.2 2.9,-0.5 2.3,-0.8 4.4,-2.5 5.7,-4.5 0.6,0.8 1.5,1.5 2.5,2.1 1.6,0.9 3.5,1.4 5.3,1.4 2.3,0 4.5,-0.7 6.3,-2.1 1.4,1.8 3.7,3.7 7.7,3.7 0.5,0 1,0 1.6,-0.1 3.4,-0.3 6.5,-1.8 8.6,-4.4 1.7,1.6 3.9,2.8 6.4,3.6 1.7,0.5 3.4,0.8 5.1,0.8 1.5,0 3.1,-0.2 4.7,-0.6 1.3,-0.3 2.5,-0.8 3.5,-1.4 0.7,0.6 1.5,1.1 2.4,1.4 l 0.2,0.1 0.2,0.1 c 0.7,0.2 1.5,0.4 2.2,0.4 2,0 3.9,-0.8 5.2,-2.3 1.5,1.1 3.4,1.7 5.3,1.7 2.8,0 5.5,-1.3 7.3,-3.6 1.2,-1.5 2.7,-4 2.9,-6.9 0.2,-3.8 2.1,-7.4 3.9,-10.8 0.6,-1 0.9,-2.2 0.9,-3.4 v -0.3 c -0.1,-2.1 -1.2,-4.3 -3,-5.6 z M 52.3,17.7 c 0.2,0 0.3,0 0.5,0 -0.5,0 -1.1,0 -1.6,0 0.4,0 0.7,0 1.1,0 z m -29.8,12 c 1.3,0.9 2.5,1.9 3.8,3 0,0 0.1,0 0.1,0.1 -1.3,-1.2 -2.5,-2.2 -3.9,-3.1 z m -2.1,8.8 c 0.4,0.6 0.7,1.3 0.9,2.1 0,0 0,0 0,0 C 21,39.8 20.7,39.1 20.4,38.5 Z M 9.5,25.5 c 0.7,0.8 1.4,1.6 2.2,2.4 -0.8,-0.9 -1.5,-1.6 -2.2,-2.4 0,0 0,0 0,0 z m 8,8.6 c 0.4,0.4 0.7,0.8 1.1,1.2 -0.8,-0.9 -1.6,-1.7 -2.4,-2.6 0.4,0.5 0.9,1 1.3,1.4 z m 3.8,6.5 c 0,0 0,0 0,0 0.3,1.1 0.7,2.2 1.1,3.4 -0.4,-1.1 -0.8,-2.3 -1.1,-3.4 z m 5.5,18.2 c -0.2,0 -0.4,0 -0.6,0 0,0 -0.1,0 -0.1,0 0,0 0,0 -0.1,0 0.3,0 0.5,0 0.8,0 z m 204.4,8 c -0.1,0 -0.2,0 -0.3,0 0,0 0,0 0,0 0.1,0 0.2,0 0.3,0 z m 6.1,-18.4 c 0.1,0 0.1,0 0.2,0 -0.2,0 -0.4,0 -0.6,0 0.1,0 0.2,0 0.4,0 z m -10,6 c 0,0 0,0 0,0 0,0 0,0 0,0 0,0 0,0 0,0 z m -6.7,-5.9 c 0,0 0,0 0,0 0,0 0,0 0,0 0,0 0,0 0,0 0,0 0,0 0,0 z m 2.5,5.1 c 0,0 0,0 0,0 0,0.2 0.1,0.4 0.1,0.6 0,-0.2 0,-0.4 -0.1,-0.6 z M 194.2,42.2 c 0.1,0 0.1,0 0.2,0 0,0 0,0 0,0 0,0 -0.1,0 -0.2,0 z m 11,6.3 c 0.1,0 0.1,0 0,0 0.1,0 0.1,0 0,0 0.1,0 0.1,0 0,0 0.1,0 0.1,0 0,0 0,0 0,0 0,0 z m 1.2,12.8 c -0.7,-1.8 -1.2,-3.7 -1.6,-5.7 0.4,1.9 1,3.8 1.6,5.7 z M 176.3,46.6 c 0,0 0,0 0,0 0.1,0 0.2,0 0.3,0 -0.1,0 -0.2,0 -0.3,0 z M 171.4,66 c 0.2,0 0.4,0 0.6,0 -0.1,0 -0.3,0 -0.4,0 -0.1,0 -0.2,0 -0.2,0 z m 9.8,-18.1 c 0,0 0,0 0,0 0.1,0.1 0.2,0.1 0.3,0.2 0,0 0,0 0,0 -0.1,-0.1 -0.2,-0.2 -0.3,-0.2 z m -0.8,-0.4 c 0.3,0.1 0.6,0.3 0.8,0.4 0,0 0,0 0,0 -0.3,-0.2 -0.6,-0.3 -0.8,-0.4 -0.1,0 0,0 0,0 z m 1.1,0.6 c 0.2,0.1 0.4,0.2 0.5,0.3 -0.1,-0.1 -0.3,-0.2 -0.5,-0.3 0,-0.1 0,-0.1 0,0 z m 4.2,19.5 c 0,0 -0.1,0 -0.1,0 -0.1,0 -0.2,0 -0.3,0 0.1,0 0.2,0 0.4,0 z M 159.8,55.3 c 0,-0.2 -0.1,-0.3 -0.1,-0.5 0,0.2 0,0.4 0.1,0.5 0,0 0,0 0,0 z m 1.9,-6.6 c 0,0 0.1,0 0,0 -0.1,0 -0.3,0 -0.4,0 0.2,0 0.3,0 0.4,0 z m -6.6,18.9 c -0.1,0 -0.2,0 -0.3,0 0.1,-0.1 0.2,0 0.3,0 0,0 0,0 0,0 z M 123.9,51.5 c 0.3,0.1 0.5,0.2 0.7,0.3 -0.1,0.7 -0.2,1.3 -0.4,2 -0.1,-0.2 -0.3,-0.3 -0.4,-0.5 0.2,-0.6 0.2,-1.2 0.1,-1.8 z m 8.8,16.1 c -0.2,0 -0.3,0 -0.5,0 0,0 -0.1,0 -0.1,0 0.1,0 0.4,0 0.6,0 z m 5.8,-25.3 c 0.1,0 0.2,0 0.4,0 -0.1,0 -0.3,0 -0.4,0 0,0 0,0 0,0 z m 5,1.1 c 0,0 0,0 0,0 0,0 0,0 0,0 0.1,0 0.2,0.1 0.3,0.2 -0.1,-0.1 -0.2,-0.1 -0.3,-0.2 0,0 0,0 0,0 0,0 0,0 0,0 z m -32,20.2 c 0.1,0.1 0.3,0.1 0.4,0.2 0,0 0,0 0,0 -0.2,-0.1 -0.3,-0.2 -0.4,-0.2 z m 0.6,-15.2 c 0.1,0 0.1,0 0.2,0 0,0 0.1,0 0.1,0 -0.1,0 -0.2,0 -0.3,0 z m -2,13.4 c 0,-0.1 0,-0.2 0,-0.4 0,0 0,0 0,0 0,0.1 0,0.2 0,0.4 z m 4.2,5.7 c -0.1,0 -0.2,0 -0.3,0 0,0 0,0 0,0 0.3,0 0.5,0 0.8,-0.1 -0.2,0.1 -0.4,0.1 -0.5,0.1 z m 0.5,-14.6 c -0.1,0 -0.1,0 0,0 0,0 0.2,0 0.3,0 -0.1,-0.1 -0.2,0 -0.3,0 z m 2.7,4.6 c 0,0 0,0 0,0 0.1,0 0.3,0.1 0.5,0.1 -0.2,0 -0.4,-0.1 -0.5,-0.1 z M 117,52.1 c 0,-0.1 -0.1,-0.3 -0.1,-0.5 0,0.3 0,0.4 0.1,0.5 0,0.1 0,0.1 0,0 z m -0.2,5.4 c 0,0 0,0 0,0 0,0 -0.1,0 -0.2,0 0.1,0 0.1,0 0.2,0 z m -17.7,-9 c 0.1,0 0.3,0 0.4,0 -0.1,0 -0.2,0 -0.4,0 0,0 0,0 0,0 z m 1.2,2.4 c 0,0 0,0 0,0 0,0 0.1,0 0.2,0 -0.1,0 -0.1,0 -0.2,0 0,0 0,0 0,0 z m -7.5,2.4 c 0,0 0,0 0,0 0.1,0.8 0.2,1.7 0.3,2.5 C 93,55 92.9,54.2 92.8,53.3 Z M 92,63 c 0,0 0,0 0,0 0,0 0,0 0,0 0,0 0,0 0,0 z M 77.7,38.9 c 0.1,0 0.3,0 0.4,0.1 -0.2,-0.1 -0.3,-0.1 -0.4,-0.1 0,0 0,0 0,0 z M 65.9,76.7 c 0.1,0 0.1,0 0.2,0 -0.1,0 -0.1,0 -0.2,0 0,0 0,0 0,0 z"
   inkscape:connector-curvature="0"
   style="fill:#ffffff" />
	<g
   id="XMLID_25_">
		<g
   id="XMLID_76_">
			<path
   id="XMLID_79_"
   class="st1"
   d="m 239,49.2 c -2.4,4.3 -4.5,8.7 -4.8,13.7 -0.1,1 -0.7,2.1 -1.4,2.9 -1.1,1.4 -2.9,1.2 -3.8,-0.2 -0.9,-1.3 -1.5,-2.8 -2.3,-4.2 -0.3,-0.6 -0.9,-1.4 -1.4,-1.4 -0.6,0 -1.4,0.6 -1.8,1.1 -0.7,1.2 -1.2,2.6 -1.9,3.9 -0.4,0.8 -0.8,1.6 -1.2,2.3 -0.1,0 -0.2,-0.1 -0.4,-0.1 -0.1,-1.1 -0.2,-2.2 -0.3,-3.3 -0.2,-4.5 -0.3,-9 -0.4,-13.5 0,-0.3 0.1,-0.7 0.3,-1 0.2,-0.4 0.6,-1.1 0.9,-1 0.5,0.1 1.1,0.5 1.3,0.9 0.5,1.4 0.9,2.8 1.2,4.3 0.3,1.4 0.7,1.7 2.1,1.2 2.6,-0.8 2.7,-0.8 4.5,1.5 0.3,0.4 1,0.8 1.4,0.7 0.4,0 0.9,-0.6 1.1,-1.1 0.5,-1.5 0.9,-3 1.4,-4.5 1,-2.9 3.6,-3.8 5.4,-2.5 0.1,0.1 0.1,0.2 0.1,0.3 z"
   inkscape:connector-curvature="0"
   style="fill:#3da347" />
			<path
   id="XMLID_75_"
   class="st0"
   d="m 237.3,48.4 c 0.6,0 1.2,0.2 1.7,0.5 0,0.1 0,0.2 0,0.3 -2.4,4.3 -4.5,8.7 -4.8,13.7 -0.1,1 -0.7,2.1 -1.4,2.9 -0.5,0.6 -1.2,0.9 -1.8,0.9 -0.7,0 -1.5,-0.4 -2,-1.2 -0.9,-1.3 -1.5,-2.8 -2.3,-4.2 -0.3,-0.6 -0.9,-1.4 -1.4,-1.4 0,0 0,0 0,0 -0.6,0 -1.4,0.6 -1.8,1.1 -0.7,1.2 -1.2,2.6 -1.9,3.9 -0.4,0.8 -0.8,1.6 -1.2,2.3 -0.1,0 -0.2,-0.1 -0.4,-0.1 -0.1,-1.1 -0.2,-2.2 -0.3,-3.3 -0.2,-4.5 -0.3,-9 -0.4,-13.5 0,-0.3 0.1,-0.7 0.3,-1 0.2,-0.4 0.6,-1 0.8,-1 0,0 0,0 0,0 0.5,0.1 1.1,0.5 1.3,0.9 0.5,1.4 0.9,2.8 1.2,4.3 0.2,1 0.5,1.4 1.1,1.4 0.3,0 0.6,-0.1 0.9,-0.2 1,-0.3 1.6,-0.5 2.1,-0.5 0.8,0 1.3,0.5 2.4,2 0.3,0.4 0.9,0.8 1.3,0.8 0,0 0.1,0 0.1,0 0.4,0 0.9,-0.6 1.1,-1.1 0.5,-1.5 0.9,-3 1.4,-4.5 1,-2 2.5,-3 4,-3 m 0,-3 c 0,0 0,0 0,0 -2.8,0 -5.4,2 -6.5,5.1 -0.2,0.7 -0.4,1.3 -0.6,2 -0.8,-0.6 -1.6,-1 -2.9,-1 -0.5,0 -1,0.1 -1.5,0.2 -0.3,-1.1 -0.6,-2.2 -1,-3.3 -0.6,-1.6 -2.2,-2.5 -3.6,-2.8 -0.2,0 -0.4,0 -0.5,0 -1.9,0 -2.9,1.6 -3.4,2.5 -0.5,0.8 -0.7,1.7 -0.7,2.6 0.1,5.1 0.3,9.5 0.4,13.6 0,0.8 0.1,1.7 0.2,2.4 0,0.3 0.1,0.7 0.1,1 0.1,1.2 0.9,2.2 2,2.6 l 0.2,0.1 0.2,0.1 c 0.3,0.1 0.6,0.2 1,0.2 1.1,0 2.2,-0.6 2.7,-1.7 0.1,-0.2 0.2,-0.5 0.4,-0.7 0.3,-0.6 0.6,-1.1 0.8,-1.7 0.2,-0.5 0.4,-0.9 0.6,-1.4 0,-0.1 0.1,-0.1 0.1,-0.2 0.4,0.8 0.8,1.6 1.4,2.5 1,1.6 2.7,2.5 4.5,2.5 1.6,0 3.1,-0.8 4.2,-2.1 0.9,-1.1 1.9,-2.8 2,-4.6 0.3,-4.6 2.3,-8.7 4.4,-12.4 0.2,-0.4 0.4,-0.9 0.4,-1.5 v -0.3 c 0,-1 -0.5,-1.9 -1.3,-2.4 -1.2,-0.9 -2.4,-1.3 -3.6,-1.3 z"
   inkscape:connector-curvature="0"
   style="fill:#ffffff" />
		</g>
		<g
   id="XMLID_69_">
			<path
   id="XMLID_74_"
   class="st2"
   d="m 9,24.7 c 6.7,0.9 12.4,3.5 17.3,8.1 5.4,-11 14.4,-15.3 26.4,-15.1 -0.4,1.2 -0.6,2.2 -1,3.1 -3.9,9.5 -10,17.3 -17.6,24.1 -0.4,0.4 -0.6,1.2 -0.6,1.7 0.2,2.6 0.4,5.1 -0.6,7.6 -1.2,2.8 -4,4.7 -7.1,4.5 -1.7,-0.1 -3,-1 -4,-2.4 C 17,49.6 13.1,42.5 10.7,34.6 9.9,32 9.4,29.2 8.9,26.5 8.9,26.1 9,25.5 9,24.7 Z M 26.4,44.4 C 25.8,42 23.6,40 23.9,37 24,36.4 23.5,35.8 23.3,35.2 c -0.1,0 -0.2,0 -0.3,0 0,0.9 0,1.7 0,2.8 C 19.1,33 11.3,25.8 9.5,25.5 c 2.9,3.2 5.9,6.4 9.1,9.8 -1,-0.1 -1.4,-0.1 -2.3,-0.2 0.7,0.5 1,0.8 1.3,1 2,0.9 3.1,2.5 3.7,4.5 0.7,2.3 1.4,4.5 2.4,6.7 0.3,0.7 1.4,1 2.1,1.3 0.2,0.1 0.9,-0.4 1.1,-0.8 1.9,-3.5 3.8,-7 5.6,-10.5 1.4,-2.8 3.2,-5.1 6.1,-6.6 1,-0.6 2,-1.4 2.9,-2.1 0,-0.1 -0.1,-0.2 -0.1,-0.3 -1,0.3 -2,0.6 -3.2,0.9 3.4,-4 7.4,-7 12.1,-9 -2.6,0.6 -5.2,1.3 -7.5,2.5 -2.3,1.2 -4.2,3.1 -6.1,4.5 0,0 0.1,-0.4 0.1,-0.9 -0.1,0 -0.1,0 -0.2,-0.1 -3.4,6.1 -6.8,12.2 -10.2,18.2 z"
   inkscape:connector-curvature="0"
   style="fill:#2f6d35" />
			<path
   id="XMLID_49_"
   class="st0"
   d="m 51.9,17.7 c 0.3,0 0.6,0 0.9,0 -0.4,1.2 -0.6,2.2 -1,3.1 -3.9,9.5 -10,17.3 -17.6,24.1 -0.4,0.4 -0.6,1.2 -0.6,1.7 0.2,2.6 0.4,5.1 -0.6,7.6 -1.1,2.7 -3.8,4.5 -6.8,4.5 -0.1,0 -0.2,0 -0.3,0 -1.7,-0.1 -3,-1 -4,-2.4 C 17.1,49.6 13.2,42.5 10.8,34.6 10,32 9.5,29.2 9,26.5 8.9,26 9,25.4 9,24.6 c 6.7,0.9 12.4,3.5 17.3,8.1 5.3,-10.6 14,-15 25.6,-15 m -15.3,9.5 c 0,0 0.1,-0.4 0.1,-0.9 -0.1,0 -0.1,0 -0.2,-0.1 C 33.1,32.3 29.7,38.4 26.3,44.4 25.8,42 23.6,40 23.9,37 24,36.4 23.5,35.8 23.3,35.2 c -0.1,0 -0.2,0 -0.3,0 0,0.9 0,1.7 0,2.8 C 19.1,33 11.3,25.8 9.5,25.5 c 2.9,3.2 5.9,6.4 9.1,9.8 -1,-0.1 -1.4,-0.1 -2.3,-0.2 0.7,0.5 1,0.8 1.3,1 2,0.9 3.1,2.5 3.7,4.5 0.7,2.3 1.4,4.5 2.4,6.7 0.3,0.7 1.4,1 2.1,1.3 0,0 0,0 0.1,0 0.3,0 0.8,-0.4 1,-0.8 1.9,-3.5 3.8,-7 5.6,-10.5 1.4,-2.8 3.2,-5.1 6.1,-6.6 1,-0.6 2,-1.4 2.9,-2.1 0,-0.1 -0.1,-0.2 -0.1,-0.3 -1,0.3 -2,0.6 -3.2,0.9 3.4,-4 7.4,-7 12.1,-9 -2.6,0.6 -5.2,1.3 -7.5,2.5 -2.3,1.2 -4.3,3.1 -6.2,4.5 M 51.9,14.7 c -12,0 -20.7,4.4 -26.3,13.4 -4.7,-3.5 -10,-5.6 -16.1,-6.4 -0.1,0 -0.3,0 -0.4,0 -0.7,0 -1.4,0.3 -2,0.7 -0.6,0.6 -1,1.4 -1,2.3 0,0.2 0,0.4 0,0.6 0,0.5 -0.1,1.2 0.1,1.9 0.1,0.7 0.3,1.3 0.4,2 0.4,2.1 0.8,4.2 1.5,6.4 2.3,7.5 6.1,14.8 11.6,22.6 1.6,2.3 3.8,3.5 6.3,3.6 0.1,0 0.3,0 0.4,0 4.1,0 7.9,-2.6 9.5,-6.4 1.3,-3 1.1,-6 0.9,-8.7 8.3,-7.5 14.2,-15.6 17.9,-24.8 0.3,-0.8 0.5,-1.5 0.7,-2.3 0.1,-0.3 0.2,-0.7 0.3,-1.1 0.3,-0.9 0.1,-1.9 -0.4,-2.6 -0.5,-0.7 -1.4,-1.2 -2.4,-1.2 -0.4,0 -0.7,0 -1,0 z"
   inkscape:connector-curvature="0"
   style="fill:#ffffff" />
		</g>
		<g
   id="XMLID_63_">
			<path
   id="XMLID_67_"
   class="st1"
   d="m 56.2,36 c 2.8,1.4 5,3.4 6.9,5.8 2.1,2.5 2.6,5.7 3.2,8.7 0.6,3 0.8,6.1 1.3,9.3 0.4,-0.5 1,-1 1.4,-1.6 2.2,-3.1 3.1,-6.7 4.1,-10.3 0.7,-2.5 1.7,-5 2.8,-7.4 0.8,-1.8 1.7,-2 3.4,-1.1 1.9,1.1 3.7,2.3 5.5,3.5 0.3,0.2 0.5,0.6 0.8,1 -3.6,2 -5.3,5.4 -6.7,8.9 -2.5,6.1 -4.9,12.2 -7.3,18.4 -0.8,2.1 -1.9,4 -4,5.1 -1.7,0.9 -3.2,0.5 -3.8,-1.3 -1,-3.1 -1.9,-6.2 -2.7,-9.4 C 60,60.4 58.9,55.2 58,50 57.5,47.2 57.4,44.2 57,41.4 56.8,39.7 56.2,38 55.8,36.4 55.9,36.2 56,36.1 56.2,36 Z"
   inkscape:connector-curvature="0"
   style="fill:#3da347" />
			<path
   id="XMLID_44_"
   class="st0"
   d="m 56.2,36 c 2.8,1.4 5,3.4 6.9,5.8 2.1,2.5 2.6,5.7 3.2,8.7 0.6,3 0.8,6.1 1.3,9.3 0.4,-0.5 1,-1 1.4,-1.6 2.2,-3.1 3.1,-6.7 4.1,-10.3 0.7,-2.5 1.7,-5 2.8,-7.4 0.5,-1.1 1,-1.6 1.8,-1.6 0.4,0 1,0.2 1.6,0.5 1.9,1.1 3.7,2.3 5.5,3.5 0.3,0.2 0.5,0.6 0.8,1 -3.6,2 -5.3,5.4 -6.7,8.9 -2.5,6.1 -4.9,12.2 -7.3,18.4 -0.8,2.1 -1.9,4 -4,5.1 -0.6,0.3 -1.1,0.4 -1.6,0.4 -1,0 -1.8,-0.6 -2.2,-1.7 -1,-3.1 -1.9,-6.2 -2.7,-9.4 C 60,60.4 58.9,55.2 58,50 57.5,47.2 57.4,44.2 57,41.4 56.8,39.7 56.2,38 55.8,36.4 55.9,36.2 56,36.1 56.2,36 m 0,-3 c -0.8,0 -1.6,0.3 -2.2,0.9 l -0.1,0.2 -0.2,0.2 c -0.7,0.7 -1,1.8 -0.8,2.8 0.1,0.5 0.3,1.1 0.4,1.6 0.3,1.1 0.6,2.1 0.7,3.1 0.2,1.2 0.3,2.4 0.4,3.6 0.1,1.7 0.3,3.4 0.6,5.1 0.9,5 1.9,10.1 3.2,15.7 0.7,3.3 1.7,6.6 2.7,9.7 0.8,2.3 2.7,3.8 5,3.8 1,0 2,-0.3 3,-0.8 3.1,-1.6 4.5,-4.4 5.4,-6.7 2.2,-5.7 4.7,-12.1 7.3,-18.3 1.3,-3.2 2.6,-5.9 5.4,-7.4 0.8,-0.4 1.3,-1.2 1.5,-2 0.2,-0.9 0,-1.8 -0.6,-2.5 -0.1,-0.1 -0.1,-0.1 -0.2,-0.2 -0.3,-0.4 -0.6,-0.9 -1.3,-1.4 l -0.9,-0.6 c -1.5,-1 -3.1,-2 -4.8,-3 -1.1,-0.6 -2.1,-0.9 -3.1,-0.9 -1.4,0 -3.3,0.6 -4.5,3.4 -1.3,3 -2.2,5.5 -2.9,7.8 l -0.1,0.5 c -0.3,0.9 -0.5,1.8 -0.8,2.7 0,-0.1 0,-0.3 -0.1,-0.4 L 69.1,49.5 C 68.5,46.4 67.8,42.9 65.3,39.8 62.8,36.7 60.3,34.6 57.4,33.2 57.1,33.1 56.6,33 56.2,33 Z"
   inkscape:connector-curvature="0"
   style="fill:#ffffff" />
		</g>
		<g
   id="XMLID_51_">
			<path
   id="XMLID_61_"
   class="st1"
   d="m 168.3,62.8 c 0.7,-3.6 1.2,-7.3 2.1,-10.9 1.3,-5.1 5.1,-6.4 9.9,-4.4 2.5,1 4.1,3 5.5,5.2 0.4,0.6 1.2,1.3 1.7,1.2 0.5,-0.1 1,-1 1.3,-1.6 0.9,-2.4 1.8,-4.8 2.7,-7.2 0.1,-0.3 0.2,-0.5 0.4,-0.8 0.8,-1.5 2.1,-2.3 3.1,-1.9 0.9,0.3 1.1,1.8 0.4,3.4 -1.1,2.8 -2.1,5.6 -3.3,8.3 -1,2.2 -1,4.5 -0.5,6.8 0.8,3.3 -1.5,6.5 -5,6.7 -2.4,0.2 -2.9,-0.1 -4,-2.3 -1.2,-2.5 -2.2,-5 -3.4,-7.5 -0.4,-0.7 -1.2,-1.8 -1.8,-1.8 -1.1,0 -1.2,1.2 -1.3,2.2 -0.3,1.8 -0.6,3.5 -1.1,5.2 -0.7,2.3 -3.2,3.2 -5.3,2 -1.1,-0.5 -1.2,-1.5 -1.4,-2.6 z"
   inkscape:connector-curvature="0"
   style="fill:#3da347" />
			<path
   id="XMLID_21_"
   class="st0"
   d="m 194.4,42.2 c 0.2,0 0.3,0 0.5,0.1 0.9,0.3 1.1,1.8 0.4,3.4 -1.1,2.8 -2.1,5.6 -3.3,8.3 -1,2.2 -1,4.5 -0.5,6.8 0.8,3.3 -1.5,6.5 -5,6.7 -0.4,0 -0.7,0.1 -1.1,0.1 -1.5,0 -2,-0.5 -2.9,-2.3 -1.2,-2.5 -2.2,-5 -3.4,-7.5 -0.4,-0.7 -1.2,-1.8 -1.8,-1.8 0,0 0,0 0,0 -1.1,0 -1.2,1.2 -1.3,2.2 -0.3,1.8 -0.6,3.5 -1.1,5.2 -0.5,1.6 -1.8,2.5 -3.4,2.5 -0.6,0 -1.3,-0.2 -1.9,-0.5 -1.1,-0.6 -1.2,-1.6 -1.3,-2.7 0.7,-3.6 1.2,-7.3 2.1,-10.9 0.9,-3.6 3.1,-5.3 6,-5.3 1.2,0 2.5,0.3 3.9,0.9 2.5,1 4.1,3 5.5,5.2 0.4,0.5 1.1,1.2 1.6,1.2 0,0 0.1,0 0.1,0 0.5,-0.1 1,-1 1.3,-1.6 0.9,-2.4 1.8,-4.8 2.7,-7.2 0.1,-0.3 0.2,-0.5 0.4,-0.8 0.6,-1.2 1.6,-2 2.5,-2 m 0,-3 c -2,0 -4,1.4 -5.2,3.6 l -0.1,0.1 c -0.1,0.3 -0.3,0.6 -0.5,1 -0.3,0.8 -0.5,1.5 -0.8,2.3 -0.3,0.9 -0.6,1.8 -1,2.7 -1.3,-1.7 -3,-3.3 -5.4,-4.2 -1.8,-0.7 -3.5,-1.1 -5.1,-1.1 -4.4,0 -7.7,2.8 -8.9,7.6 -0.7,2.6 -1.1,5.2 -1.5,7.8 -0.2,1.1 -0.4,2.2 -0.6,3.3 -0.1,0.3 -0.1,0.7 0,1 v 0.2 c 0.2,1.2 0.5,3.3 2.8,4.6 1,0.6 2.2,0.9 3.4,0.9 2.9,0 5.4,-1.9 6.2,-4.7 0.1,-0.5 0.3,-0.9 0.4,-1.4 0,0.1 0.1,0.2 0.1,0.3 0.5,1.1 1,2.3 1.6,3.5 1,2 2.2,4 5.6,4 0.4,0 0.8,0 1.3,-0.1 2.5,-0.2 4.8,-1.5 6.3,-3.5 1.4,-2 1.9,-4.5 1.4,-6.9 -0.4,-1.8 -0.3,-3.4 0.3,-4.9 1.1,-2.5 2.1,-5.1 3,-7.6 l 0.3,-0.8 c 0.7,-1.9 0.7,-3.7 0.1,-5.1 -0.5,-1 -1.3,-1.8 -2.3,-2.2 -0.3,-0.3 -0.8,-0.4 -1.4,-0.4 z"
   inkscape:connector-curvature="0"
   style="fill:#ffffff" />
		</g>
		<g
   id="XMLID_59_">
			<path
   id="XMLID_71_"
   class="st2"
   d="m 121.5,64.5 c 2,-0.2 3.8,-0.4 5.6,-0.6 2,-0.2 2.8,-1 3,-2.5 0.7,-4.3 1.5,-8.5 2.2,-12.8 0.2,-1.3 -0.3,-2.2 -1.6,-2.5 -1.1,-0.3 -2.2,-0.5 -3.2,-0.7 -0.4,-0.1 -0.9,-0.2 -1.2,-0.5 -0.4,-0.3 -0.6,-0.8 -0.9,-1.2 0.4,-0.2 0.9,-0.5 1.3,-0.5 3.9,-0.3 7.8,-0.7 11.7,-0.8 1.7,0 3.4,0.6 5,1.1 0.4,0.1 0.9,0.7 0.9,1.1 0,0.4 -0.5,0.8 -0.9,1.1 -0.6,0.3 -1.4,0.6 -2.1,0.6 -1.5,0.2 -1.9,1.1 -1.9,2.4 0,3.8 0.1,7.6 -1.3,11.2 -0.4,0.9 0.4,1.4 1.7,1.5 2,0.3 4,0.8 6,1.3 1.4,0.3 1.3,1.5 1.2,2.6 -0.1,1.1 -0.9,1.1 -1.8,1.2 -5.2,0.9 -10.5,1.3 -15.8,1.1 -1.9,-0.1 -3.8,-0.3 -5.6,-0.7 -0.9,-0.3 -2.1,-0.7 -2.3,-2.4 z"
   inkscape:connector-curvature="0"
   style="fill:#2f6d35" />
			<path
   id="XMLID_58_"
   class="st0"
   d="m 138.6,42.3 c 1.6,0 3.3,0.6 4.9,1.1 0.4,0.1 0.9,0.7 0.9,1.1 0,0.4 -0.5,0.8 -0.9,1.1 -0.6,0.3 -1.4,0.6 -2.1,0.6 -1.5,0.2 -1.9,1.1 -1.9,2.4 0,3.8 0.1,7.6 -1.3,11.2 -0.4,0.9 0.4,1.4 1.7,1.5 2,0.3 4,0.8 6,1.3 1.4,0.3 1.3,1.5 1.2,2.6 -0.1,1.1 -0.9,1.1 -1.8,1.2 -4.3,0.8 -8.7,1.1 -13.1,1.1 -0.9,0 -1.8,0 -2.7,0 -1.9,-0.1 -3.8,-0.3 -5.6,-0.7 -1.1,-0.2 -2.3,-0.7 -2.5,-2.4 2,-0.2 3.8,-0.4 5.6,-0.6 2,-0.2 2.8,-1 3,-2.5 0.7,-4.3 1.5,-8.5 2.2,-12.8 0.2,-1.3 -0.3,-2.2 -1.6,-2.5 -1.1,-0.3 -2.2,-0.5 -3.2,-0.7 -0.4,-0.1 -0.9,-0.2 -1.2,-0.5 -0.4,-0.3 -0.6,-0.8 -0.9,-1.2 0.4,-0.2 0.9,-0.5 1.3,-0.5 3.9,-0.3 7.8,-0.7 11.7,-0.8 0.2,0 0.3,0 0.3,0 m 0,-3 h -0.2 c -3.2,0.1 -6.3,0.3 -9.4,0.6 -0.9,0.1 -1.7,0.2 -2.6,0.2 -0.9,0.1 -1.6,0.4 -2,0.6 -0.1,0 -0.1,0.1 -0.2,0.1 -0.9,0.4 -1.5,1.1 -1.8,2 -0.2,0.9 -0.1,1.9 0.5,2.6 0.1,0.1 0.1,0.2 0.2,0.3 0.3,0.4 0.6,0.9 1.2,1.4 0.8,0.7 1.7,0.9 2.4,1.1 0.6,0.2 1.2,0.3 1.9,0.4 0.2,0 0.4,0.1 0.6,0.1 -0.2,1.2 -0.4,2.4 -0.7,3.7 -0.5,2.7 -1,5.5 -1.4,8.4 -0.1,0 -0.2,0 -0.4,0.1 -1.3,0.1 -2.5,0.3 -3.8,0.4 l -1.8,0.2 c -1.6,0.2 -2.8,1.7 -2.7,3.3 0.2,1.5 1,4.2 4.8,5 1.9,0.4 4,0.7 6.1,0.7 0.9,0 1.9,0 2.8,0 4.6,0 9.2,-0.4 13.6,-1.2 0.1,0 0.2,0 0.2,0 3.1,-0.5 3.9,-2.4 4,-3.9 0.3,-4 -1.7,-5.3 -3.5,-5.7 l -0.5,-0.1 c -1.4,-0.3 -2.8,-0.7 -4.3,-1 0.9,-3.2 0.8,-6.4 0.8,-9.6 0.8,-0.2 1.6,-0.4 2.3,-0.8 1.2,-0.6 2.6,-2 2.6,-3.8 0,-1.9 -1.6,-3.5 -3.1,-3.9 -0.3,-0.1 -0.7,-0.2 -1,-0.3 -1.3,-0.4 -2.9,-0.9 -4.6,-0.9 z"
   inkscape:connector-curvature="0"
   style="fill:#ffffff" />
		</g>
		<g
   id="XMLID_53_">
			<path
   id="XMLID_57_"
   class="st1"
   d="m 197.8,58.4 c 0,-2.8 1.1,-5.3 2.4,-7.6 1.4,-2.4 5.7,-3 8.5,-1.5 1.1,0.6 2.5,0.7 3.8,1.1 0.5,0.1 1,0.4 1.2,0.8 1,2 1.4,4.1 1.1,6.3 -0.3,2.1 -0.7,4.2 -1,6.3 -0.3,2 -1.7,3 -3.5,3.4 -2,0.5 -4.1,0.6 -6.1,-0.1 -4.1,-1.3 -6.3,-4.3 -6.4,-8.7 z m 13.1,1.1 c -0.3,-2.2 -2.1,-4.9 -4,-5.6 -1.3,-0.5 -2.5,0.4 -2.2,1.7 0.4,1.9 1,3.8 1.6,5.7 0.5,1.5 2.3,1.8 3.3,0.7 0.7,-0.7 0.9,-1.6 1.3,-2.5 z"
   inkscape:connector-curvature="0"
   style="fill:#3da347" />
			<path
   id="XMLID_20_"
   class="st0"
   d="m 205.3,48.5 c 1.2,0 2.5,0.3 3.5,0.8 1.1,0.6 2.5,0.7 3.8,1.1 0.5,0.1 1,0.4 1.2,0.8 1,2 1.4,4.1 1.1,6.3 -0.3,2.1 -0.7,4.2 -1,6.3 -0.3,2 -1.7,3 -3.5,3.4 -1,0.2 -2,0.4 -3,0.4 -1,0 -2.1,-0.1 -3.1,-0.5 -4.1,-1.2 -6.3,-4.3 -6.3,-8.7 0,-2.8 1.1,-5.3 2.4,-7.6 0.7,-1.6 2.8,-2.3 4.9,-2.3 m 3,14.2 c 0.5,0 1,-0.2 1.4,-0.6 0.6,-0.7 0.8,-1.7 1.2,-2.5 -0.3,-2.2 -2.1,-4.9 -4,-5.6 -0.2,-0.1 -0.5,-0.1 -0.7,-0.1 -1,0 -1.7,0.8 -1.4,1.9 0.4,1.9 1,3.8 1.6,5.7 0.4,0.7 1.1,1.2 1.9,1.2 m -3,-17.2 v 0 c -3.4,0 -6.3,1.5 -7.6,3.8 -1.3,2.3 -2.8,5.4 -2.8,9.1 0,5.7 3.1,9.9 8.4,11.6 1.3,0.4 2.6,0.6 4,0.6 1.2,0 2.5,-0.2 3.8,-0.5 4.4,-1.1 5.5,-4.1 5.8,-5.9 0.2,-1.1 0.4,-2.2 0.5,-3.3 0.2,-1 0.3,-2 0.5,-3 0.4,-2.7 0,-5.5 -1.3,-8.1 -0.7,-1.4 -2,-2 -3,-2.3 -0.6,-0.2 -1.2,-0.3 -1.7,-0.4 -0.6,-0.1 -1.2,-0.3 -1.6,-0.4 -1.6,-0.8 -3.3,-1.2 -5,-1.2 z"
   inkscape:connector-curvature="0"
   style="fill:#ffffff" />
		</g>
		<g
   id="XMLID_38_">
			<path
   id="XMLID_62_"
   class="st1"
   d="m 102.1,49.2 c -0.3,1.4 -0.8,1.7 -1.8,1.7 -1.9,0 -3.9,0.2 -5.8,0.3 -1.3,0.1 -1.8,0.8 -1.7,2.1 0.1,0.9 0.2,1.7 0.3,2.6 0.2,1.6 1.1,2.2 2.8,1.8 1.8,-0.4 3.7,-0.7 5.7,-1.1 -0.7,1.6 -2.1,2.1 -3.4,2.5 -1.4,0.4 -2.9,0.5 -4.4,0.9 -1.3,0.4 -2.1,1.7 -1.9,3 0.2,1.3 1.2,1.3 2.1,1.2 2.1,-0.3 4.1,-0.7 6.1,-1 0.7,-0.1 1.4,-0.1 2.4,-0.2 -1.7,2.1 -3.8,2.6 -6,2.9 -3.1,0.4 -6.3,0.8 -9.7,1.3 0,-1.3 -0.1,-2.9 0,-4.5 0.2,-2.4 0.5,-4.7 0.8,-7.1 0.1,-0.7 0.2,-1.4 0.2,-2.2 0,-0.7 -0.1,-1.6 -0.5,-2.2 -0.7,-1.3 -0.3,-2.1 1.2,-2.2 3.5,-0.2 7,-0.5 10.5,-0.5 1.1,-0.1 2.1,0.4 3.1,0.7 z"
   inkscape:connector-curvature="0"
   style="fill:#3da347" />
			<path
   id="XMLID_19_"
   class="st0"
   d="m 99.2,48.5 c 1,0 1.9,0.5 2.9,0.8 -0.2,1.4 -0.8,1.7 -1.8,1.7 0,0 0,0 0,0 -0.1,0 -0.1,0 -0.2,0 -1.9,0 -3.8,0.2 -5.6,0.3 -1.3,0.1 -1.8,0.8 -1.7,2.1 0.1,0.9 0.2,1.7 0.3,2.6 0.2,1.3 0.8,1.9 2,1.9 0.2,0 0.5,0 0.8,-0.1 1.8,-0.4 3.7,-0.7 5.7,-1.1 -0.7,1.6 -2.1,2.1 -3.4,2.5 -1.4,0.4 -2.9,0.5 -4.4,0.9 -1.3,0.4 -2.1,1.7 -1.9,3 0.2,1 0.8,1.2 1.5,1.2 0.2,0 0.4,0 0.6,-0.1 2.1,-0.3 4.1,-0.7 6.1,-1 0.7,-0.1 1.4,-0.1 2.4,-0.2 -1.7,2.1 -3.8,2.6 -6,2.9 -3.1,0.4 -6.3,0.8 -9.7,1.3 0,-1.3 -0.1,-2.9 0,-4.5 0.2,-2.4 0.5,-4.7 0.8,-7.1 0.1,-0.7 0.2,-1.4 0.2,-2.2 0,-0.7 -0.1,-1.6 -0.5,-2.2 -0.7,-1.3 -0.3,-2.1 1.2,-2.2 3.6,-0.2 7.1,-0.5 10.7,-0.5 -0.1,0 0,0 0,0 m 2.4,8.1 v 0 m 1,6.3 v 0 M 99.2,45.5 h -0.1 c -3.2,0.1 -6.4,0.3 -9.5,0.5 h -1.2 c -2.4,0.2 -3.4,1.4 -3.9,2.2 -0.4,0.8 -0.9,2.3 0.2,4.4 0,0.1 0.1,0.3 0.1,0.9 0,0.2 0,0.6 -0.1,1 0,0.2 -0.1,0.5 -0.1,0.7 -0.1,0.7 -0.2,1.4 -0.3,2.1 -0.2,1.6 -0.4,3.3 -0.5,5 -0.1,1.2 -0.1,2.4 0,3.5 0,0.4 0,0.8 0,1.2 0,0.9 0.4,1.7 1,2.3 0.6,0.5 1.3,0.7 2,0.7 0.1,0 0.3,0 0.4,0 l 3.1,-0.4 6.6,-0.9 c 2.7,-0.4 5.5,-1.1 7.9,-3.8 0.5,-0.5 0.8,-1.2 0.8,-2 0,-1.6 -1.2,-2.9 -2.7,-3 0.5,-0.5 1,-1.2 1.4,-2 0.2,-0.4 0.3,-0.9 0.3,-1.4 0,-1.5 -1.1,-2.7 -2.5,-3 1.2,-0.4 2.5,-1.5 2.9,-3.9 0.3,-1.5 -0.7,-3 -2.2,-3.4 -0.2,-0.1 -0.5,-0.2 -0.8,-0.3 -0.7,-0.1 -1.7,-0.4 -2.8,-0.4 z m -3.3,8.6 c 1.2,-0.1 2.4,-0.2 3.6,-0.2 L 99.2,54 c -1.1,0.2 -2.2,0.4 -3.2,0.6 0,-0.1 0,-0.3 -0.1,-0.5 z"
   inkscape:connector-curvature="0"
   style="fill:#ffffff" />
		</g>
		<g
   id="XMLID_16_">
			<path
   id="XMLID_23_"
   class="st2"
   d="m 167.1,51 c -1.4,0.4 -2.8,0.9 -4.2,1.3 -0.5,0.1 -0.9,0.2 -1.4,0.3 -1.7,0.4 -2.1,1.1 -1.8,2.7 0.9,3.8 0,7.2 -2,10.4 -0.5,0.8 -1.3,1.4 -2.2,1.7 -1.1,0.4 -2.6,-0.7 -2.7,-2 -0.1,-2.1 -0.1,-4.1 0,-6.2 0.1,-1.3 0.5,-2.6 0.7,-4 0.2,-1.1 -0.2,-1.9 -1.4,-2.1 -1,-0.1 -2,-0.1 -2.9,-0.3 -0.7,-0.2 -1.2,-0.8 -1.8,-1.3 0.5,-0.4 0.9,-1 1.4,-1.1 2.8,-0.6 5.7,-1.1 8.5,-1.5 1.9,-0.3 3.9,-0.4 5.9,-0.2 1.3,0.1 2.5,1 3.8,1.5 0.2,0.3 0.1,0.6 0.1,0.8 z"
   inkscape:connector-curvature="0"
   style="fill:#2f6d35" />
			<path
   id="XMLID_15_"
   class="st0"
   d="m 161.7,48.7 c 0.6,0 1.1,0 1.7,0.1 1.3,0.1 2.5,1 3.8,1.5 0,0.2 0,0.5 0,0.7 -1.4,0.4 -2.8,0.9 -4.2,1.3 -0.5,0.1 -0.9,0.2 -1.4,0.3 -1.7,0.4 -2.1,1.1 -1.8,2.7 0.9,3.8 0,7.2 -2,10.4 -0.5,0.8 -1.3,1.4 -2.2,1.7 -0.2,0.1 -0.3,0.1 -0.5,0.1 -1,0 -2.1,-1 -2.2,-2.1 -0.1,-2.1 -0.1,-4.1 0,-6.2 0.1,-1.3 0.5,-2.6 0.7,-4 0.2,-1.1 -0.2,-1.9 -1.4,-2.1 -1,-0.1 -2,-0.1 -2.9,-0.3 -0.7,-0.2 -1.2,-0.8 -1.8,-1.3 0.5,-0.4 0.9,-1 1.4,-1.1 2.8,-0.6 5.7,-1.1 8.5,-1.5 1.5,-0.1 2.9,-0.2 4.3,-0.2 m 0,-3 c 0,0 0,0 0,0 -1.7,0 -3.3,0.2 -4.6,0.4 -3.1,0.4 -6.1,1 -8.7,1.5 -1.3,0.3 -2,1.1 -2.5,1.6 -0.1,0.1 -0.1,0.1 -0.2,0.2 -0.7,0.6 -1.1,1.5 -1.1,2.4 0,0.9 0.5,1.8 1.2,2.3 0.1,0.1 0.2,0.2 0.3,0.3 0.5,0.5 1.3,1.1 2.3,1.4 0.7,0.2 1.4,0.3 2,0.4 0,0 0,0.1 0,0.1 -0.2,0.8 -0.4,1.8 -0.5,2.8 -0.2,2.4 -0.2,4.5 0,6.6 0.2,2.7 2.5,4.9 5.2,4.9 0.5,0 1.1,-0.1 1.5,-0.3 1.5,-0.5 2.9,-1.6 3.7,-2.9 2.4,-3.8 3.3,-7.8 2.5,-11.9 0.3,-0.1 0.6,-0.1 0.9,-0.2 1,-0.3 2,-0.6 3,-0.9 l 1.2,-0.4 c 1.2,-0.4 2,-1.5 2.1,-2.7 v -0.2 -0.5 c 0.1,-1.3 -0.7,-2.4 -1.8,-2.9 -0.3,-0.1 -0.6,-0.3 -1,-0.5 -1,-0.5 -2.2,-1.1 -3.7,-1.3 -0.5,-0.2 -1.1,-0.2 -1.8,-0.2 z"
   inkscape:connector-curvature="0"
   style="fill:#ffffff" />
		</g>
		<g
   id="XMLID_11_">
			<path
   id="XMLID_14_"
   class="st1"
   d="m 105.5,57.4 c -0.2,-2.4 0.5,-4.8 2.1,-6.9 2.1,-2.6 6.6,-2.9 8.7,-0.4 0.4,0.5 0.5,1.4 0.7,2.1 -0.8,0.2 -1.6,0.7 -2.3,0.6 -1.8,-0.2 -3.2,0.3 -3.6,2 -0.5,2.1 -0.8,4.3 -1,6.5 -0.1,1.2 0.7,2 1.8,2.4 1,0.4 2,0.2 2.8,-0.6 1,-1.1 1,-1.7 -0.1,-2.8 -0.4,-0.5 -0.8,-1.2 -0.8,-1.8 0,-0.3 0.9,-0.7 1.4,-0.8 0.7,-0.2 1.6,-0.3 2.3,-0.1 0.6,0.1 1.3,0.5 1.6,1 1.8,3.3 -0.7,8.5 -4.3,9 -2.2,0.3 -4,-0.7 -5.7,-2.1 -2,-1.6 -3.9,-4.4 -3.6,-8.1 z"
   inkscape:connector-curvature="0"
   style="fill:#3da347" />
			<path
   id="XMLID_10_"
   class="st0"
   d="m 112.3,48.4 c 1.5,0 3,0.6 4,1.8 0.4,0.5 0.5,1.4 0.7,2.1 -0.7,0.2 -1.4,0.6 -2.1,0.6 -0.1,0 -0.1,0 -0.2,0 -0.2,0 -0.5,0 -0.7,0 -1.5,0 -2.5,0.5 -2.9,2 -0.5,2.1 -0.8,4.3 -1,6.5 -0.1,1.2 0.7,2 1.8,2.4 0.3,0.1 0.7,0.2 1,0.2 0.6,0 1.2,-0.2 1.8,-0.8 1,-1.1 1,-1.7 -0.1,-2.8 -0.4,-0.5 -0.8,-1.2 -0.8,-1.8 0,-0.3 0.9,-0.7 1.4,-0.8 0.5,-0.1 1,-0.2 1.6,-0.2 0.2,0 0.5,0 0.7,0.1 0.6,0.1 1.3,0.5 1.6,1 1.8,3.3 -0.7,8.5 -4.3,9 -0.3,0 -0.5,0.1 -0.8,0.1 -1.8,0 -3.5,-0.9 -4.9,-2.1 -2,-1.6 -3.8,-4.3 -3.5,-8.1 -0.2,-2.4 0.5,-4.8 2.1,-6.9 1.1,-1.6 2.8,-2.3 4.6,-2.3 m 0,-3 c 0,0 0,0 0,0 -2.8,0 -5.4,1.2 -7,3.3 -2,2.5 -3,5.5 -2.8,8.7 -0.2,4 1.5,7.9 4.7,10.4 1.5,1.2 3.8,2.8 6.8,2.8 0.4,0 0.8,0 1.2,-0.1 2.6,-0.4 5,-2.2 6.4,-4.9 1.4,-2.8 1.5,-6 0.2,-8.5 -0.7,-1.3 -1.9,-2 -3.1,-2.4 0.4,-0.3 0.7,-0.6 1,-1.1 0.4,-0.7 0.5,-1.5 0.2,-2.3 0,-0.1 -0.1,-0.3 -0.1,-0.4 -0.1,-0.7 -0.4,-1.8 -1.1,-2.7 -1.6,-1.8 -3.9,-2.8 -6.4,-2.8 z"
   inkscape:connector-curvature="0"
   style="fill:#ffffff" />
		</g>
	</g>
</g>
</svg>