<?xml version="1.0" encoding="utf-8"?>
<!-- Generator: Adobe Illustrator 18.0.0, SVG Export Plug-In . SVG Version: 6.00 Build 0)  -->
<!DOCTYPE svg PUBLIC "-//W3C//DTD SVG 1.1//EN" "http://www.w3.org/Graphics/SVG/1.1/DTD/svg11.dtd">
<svg version="1.1" id="Layer_1" xmlns="http://www.w3.org/2000/svg" xmlns:xlink="http://www.w3.org/1999/xlink" x="0px" y="0px"
	 viewBox="0 0 55 55" enable-background="new 0 0 55 55" xml:space="preserve">
<path d="M23.9,8.3c-7.8,1.8-13.8,8-16.8,15.2c-1.6,3.8-2.9,8.2-2.7,12.4c0.1,4,2.8,7,6.1,9c3.4,2.1,7.5,2.7,11.4,3.1
	c4.3,0.4,8.7,0.6,13-0.1c3.9-0.7,7.4-2.6,10.1-5.4c2.8-2.9,4.2-6.8,4.5-10.8c0.6-6.8-1.9-14-6.5-19c-4.5-5-11.7-7.3-18.2-5.6
	c-1.4,0.4-0.8,2.6,0.6,2.2c8.5-2.2,16.3,3.3,19.8,10.8c1.8,4,2.5,8.7,1.9,13c-0.6,4.3-3.1,7.9-6.7,10.3c-3.8,2.5-8.4,2.9-12.8,2.8
	c-4.3-0.1-8.6-0.4-12.7-1.7c-4.2-1.3-8.1-4.3-8.3-9c-0.2-4.3,1.5-9,3.4-12.8c2.9-5.8,8-10.6,14.5-12.1C25.9,10.2,25.3,8,23.9,8.3
	L23.9,8.3z"/>
<path d="M27.9,29.3c0.8-5.3,1.7-10.6,2.7-15.8c0.3-1.4-1.9-2-2.2-0.6c-1.1,5.2-2,10.5-2.7,15.8C25.5,30.1,27.7,30.7,27.9,29.3
	L27.9,29.3z"/>
<path d="M28.7,31.1c2.5,1,4.8,2.4,6.9,4c1.1,0.9,2.8-0.7,1.6-1.6c-2.4-1.9-5-3.4-7.9-4.6C28,28.3,27.4,30.5,28.7,31.1L28.7,31.1z"/>
<path d="M3.2,44.9c3.6,5.6,10.4,7.3,16.6,8.2c3.9,0.6,7.9,0.9,11.8,0.9c3.8,0,7.4-0.3,10.8-2c6-3.1,9.9-9.8,11.7-16.1
	c2-6.8,1-14.4-3.3-20.1c-0.9-1.2-3,0-2.1,1.2c4,5.3,4.8,11.9,3.1,18.2c-1.6,5.8-5.2,11.7-10.6,14.6c-2.9,1.6-6.3,1.7-9.6,1.7
	c-3.7,0-7.5-0.3-11.2-0.8C15,50,8.4,48.7,5.3,43.7C4.4,42.4,2.4,43.6,3.2,44.9L3.2,44.9z"/>
<path d="M2.6,36.3c-0.2-1.5-0.3-2.9-0.2-4.4c0.1-1.5-2.2-1.5-2.3,0c-0.1,1.7,0,3.3,0.3,5C0.6,38.3,2.8,37.7,2.6,36.3L2.6,36.3z"/>
<path d="M5.5,22.3c0.2-1.2,0.7-2.3,1.3-3.3c0.8-1.2-1.2-2.4-2-1.1c-0.8,1.2-1.3,2.5-1.6,3.9C3,23.1,5.2,23.7,5.5,22.3L5.5,22.3z"/>
<path d="M15.2,9.9c0.6-0.8,1.5-1.3,2.4-1.5C19.1,8,18.5,5.8,17,6.2c-1.6,0.4-2.8,1.3-3.8,2.6c-0.4,0.5-0.1,1.3,0.4,1.6
	C14.2,10.7,14.8,10.4,15.2,9.9L15.2,9.9z"/>
<path d="M28.2,4.9c0.8,0,1.6,0,2.4,0c1.5,0,1.5-2.3,0-2.3c-0.8,0-1.6,0-2.4,0C26.8,2.7,26.8,4.9,28.2,4.9L28.2,4.9z"/>
<path d="M41.6,7.5c1.5,0.7,2.6,1.8,3.3,3.3c0.6,1.3,2.6,0.2,2-1.1c-0.9-1.8-2.3-3.3-4.2-4.1C41.5,4.9,40.3,6.8,41.6,7.5L41.6,7.5z"
	/>
</svg>
