<?xml version="1.0" encoding="utf-8"?>
<!-- Generator: Adobe Illustrator 18.0.0, SVG Export Plug-In . SVG Version: 6.00 Build 0)  -->
<!DOCTYPE svg PUBLIC "-//W3C//DTD SVG 1.1//EN" "http://www.w3.org/Graphics/SVG/1.1/DTD/svg11.dtd">
<svg version="1.1" id="Layer_1" xmlns="http://www.w3.org/2000/svg" xmlns:xlink="http://www.w3.org/1999/xlink" x="0px" y="0px"
	 viewBox="0 0 56.9 82.3" enable-background="new 0 0 56.9 82.3" xml:space="preserve">
<g>
	<path d="M4.3,64.2c0.9-0.8-0.4-2.1-1.3-1.3c0.2-0.1-0.6-2.8-0.7-3.2c-0.2-1.5-0.3-3-0.3-4.5c0-2.3,0.3-4.5,1-6.6
		c0.3-0.9,0.8-1.7,1.5-2.4c1.1-1.1,2.7-0.2,3.9,0.3c2.4,1,4.8,1.6,7.3,1.8c3.4,0.3,6.6-0.6,7.7-4.1c0.6-2.1,0.3-4.7,0.2-6.8
		c-0.1-2.9-0.2-5.7-0.4-8.6c-0.1-1.2-1.9-1.2-1.9,0c0.2,3.1,0.4,6.2,0.4,9.3c0.1,2.7,0.8,6.8-2.3,8c-2.4,1-5.7,0.1-8-0.6
		C9.3,45,7.1,43.3,4.7,44c-3.9,1.2-4.4,7.2-4.5,10.5C0.1,56.1,0.5,67.6,4.3,64.2z"/>
	<path d="M34.2,77.8c-0.1,1.9-4.4,1.5-5.6,1.6c-1.8,0.1-4.1,0.3-5.7-0.4c-1.4-0.6-2.4-3.3-3-4.6c-0.7-1.5-1.1-3.1-1.6-4.7
		c-0.7-2-2.4-3.2-4.6-2.8c-3.7,0.8-7.4,1.1-11.2,1c-1.2-0.1-1.2,1.8,0,1.9c4.2,0.2,8-0.5,12.1-1.1c2-0.3,2.5,3.3,2.9,4.6
		c0.7,1.9,1.6,3.7,2.7,5.3c1.9,3,5.2,2.6,8.5,2.6c2.6-0.1,7.2,0.1,7.4-3.4C36.1,76.6,34.3,76.6,34.2,77.8z"/>
	<path d="M54.1,48.7c-1.2-0.3-1.7,1.5-0.5,1.8c0.9,0.2,0.4,4.4,0.5,5.1c0,1,0.2,2.2-0.5,3c-0.5,0.6-1.1,1.1-1.6,1.6
		c-3.1,2.8-6.6,2.3-10.4,1.9c-2-0.2-6-0.7-7.1,1.6c-0.5,1.2-0.3,3-0.2,4.2c0.1,1.8,0.6,3.6,1.2,5.3c0.4,1.1,2.2,0.6,1.8-0.5
		c-0.7-2-1.1-4-1.2-6.1c0-1-0.2-2.3,1-2.6c1-0.3,2.2-0.2,3.2-0.1c3.6,0.2,6.9,1.1,10.3-0.4c2.4-1.1,5.2-3.6,5.2-6.4
		c0-2,0.1-3.9-0.1-5.9C55.8,50,55.2,49,54.1,48.7z"/>
	<path d="M56.3,23.7c-3.8-1.4-8.2,0.6-11.7,2.1c-2.9,1.2-5.8,2.8-7.5,5.4c-1.9-2.5-5.5-3.7-8.9-3.2c-1.2,0.1-1.2,2,0,1.9
		c2.7-0.3,5.5,0.1,7.3,2.2c1.4,1.6,1.1,4,0.8,5.9c-0.3,1.9-0.5,3.7-0.8,5.6c-0.3,2.4-0.9,4.7,2.1,5.1c3.6,0.4,7.4,0.1,11-0.3
		c1.2-0.1,1.2-2,0-1.9c-3.7,0.4-7.3,0.6-11,0.3c-1.2-0.1-0.5-2-0.4-2.7c0.1-0.9,0.3-1.9,0.4-2.8c0.2-1.7,0.5-3.3,0.7-5
		c0.1-1.1,0-2.1-0.3-3c1.3-3.1,4.6-4.5,7.4-5.8c3-1.3,7-3.1,10.3-1.9C56.9,25.9,57.4,24.1,56.3,23.7z"/>
	<path d="M41.6,21.5c-1.8-3-2.9-6.8-1-10c1.7-3,5.7-4.9,8.8-6c1.1-0.4,0.6-2.2-0.5-1.8C45.1,5,40.9,7.3,38.8,11
		c-2.1,3.6-0.7,8.1,1.3,11.4C40.6,23.4,42.2,22.5,41.6,21.5z"/>
	<path d="M42.8,21.3c-1.2,0.3-0.7,2.1,0.5,1.8c9.9-2.3,12-13.5,10.9-22.2c-0.1-1.2-2-1.2-1.9,0C53.3,8.7,51.9,19.2,42.8,21.3z"/>
	<path d="M43.4,19.4c1.3-2.1,2.4-4.4,3.3-6.7c0.4-1.1-1.4-1.6-1.8-0.5c-0.9,2.2-1.9,4.3-3.1,6.3C41.2,19.5,42.8,20.5,43.4,19.4z"/>
	<path d="M14.8,51c-2.6,0.4-5,0-7.4-0.9c-0.5-0.2-1,0.2-1.1,0.6c-0.6,2.1-0.7,4.1-0.5,6.3c0.2,1.2,2,1.2,1.9,0
		c-0.2-1.6-0.2-3.2,0.2-4.8c2.4,0.8,4.9,1,7.5,0.6C16.5,52.6,16,50.8,14.8,51z"/>
	<path d="M25.8,74.7c-1.3,0-1.3-0.9-1.7-1.9c-0.7-1.7-1.3-3.4-1.9-5c-0.4-1.1-2.2-0.6-1.8,0.5c0.9,2.3,1.7,4.7,2.7,6.9
		c0.9,2,3.3,1.4,5.1,1.3c1.2-0.1,1.2-1.9,0-1.9C27.4,74.6,26.6,74.7,25.8,74.7z"/>
	<path d="M12.6,57.2c1.1,0.5,2-1.1,0.9-1.6c-1.4-0.7-3-0.6-4.2,0.4C8.1,57,7.9,59,8.8,60.1c0.7,1,2.3,0,1.6-0.9
		C10,58.7,10,58,10.4,57.5C11,56.9,11.9,56.9,12.6,57.2z"/>
	<path d="M25.1,72.3c1,0.8,2.5,0.9,3.4,0c0.9-0.8-0.5-2.2-1.3-1.3c-0.3,0.3-0.9,0-1.1-0.3c-0.4-0.6-0.5-1.4-0.5-2.1
		c-0.1-1.2-2-1.2-1.9,0C23.8,69.9,24,71.4,25.1,72.3z"/>
	<path d="M39.1,60.6c4.1,0.2,12.3,0.4,12.8-5.4c0.1-1.2-1.8-1.2-1.9,0c-0.3,4.2-8.1,3.6-10.9,3.5C37.9,58.7,37.9,60.6,39.1,60.6z"/>
	<path d="M47.2,56.9c0.8-0.9-0.5-2.2-1.3-1.3c-0.8,0.9-1.9,1.1-3.1,0.9c-1.2-0.1-1.2,1.7,0,1.9C44.4,58.6,46.1,58.1,47.2,56.9z"/>
	<path d="M26.9,41.1c0-2.3,0-4.6,0-6.9c0.8,0.1,1.7,0.2,2.5,0.1c1.2,0,1.2-1.9,0-1.9c-1.1,0-2.2,0-3.2-0.3c-0.9-0.2-1.4,0.8-1,1.4
		C25.1,33.8,25,34,25,34.2c0,2.3,0,4.6,0,6.9C25,42.3,26.9,42.3,26.9,41.1z"/>
	<path d="M27.9,36.9c0,1-0.3,1.9-0.7,2.8c-0.5,1.1,1.1,2,1.6,0.9c0.6-1.2,0.9-2.4,0.9-3.7C29.8,35.7,27.9,35.7,27.9,36.9z"/>
</g>
</svg>
