<?xml version="1.0" encoding="utf-8"?>
<!-- Generator: Adobe Illustrator 18.0.0, SVG Export Plug-In . SVG Version: 6.00 Build 0)  -->
<!DOCTYPE svg PUBLIC "-//W3C//DTD SVG 1.1//EN" "http://www.w3.org/Graphics/SVG/1.1/DTD/svg11.dtd">
<svg version="1.1" id="Layer_1" xmlns="http://www.w3.org/2000/svg" xmlns:xlink="http://www.w3.org/1999/xlink" x="0px" y="0px"
	 viewBox="0 0 56.9 55" enable-background="new 0 0 56.9 55" xml:space="preserve">
<g>
	<path d="M34.4,39.3c-6.6,1.8-13.8,2.4-19.9-1C8.4,35,5.6,27.6,6.8,20.9C8,14.3,12.9,7.8,19.7,6.3c1.2-0.3,0.7-2.1-0.5-1.8
		c-6,1.3-10.7,6.3-12.9,11.8C3.9,22.1,4.2,28.6,7.4,34c5.6,9.2,16.9,9.9,26.8,7.4C34.3,40.7,34.4,40,34.4,39.3z"/>
	<path d="M50.7,26.2c-0.6-0.2-1.2-0.2-1.9-0.3c0,0,0,0,0,0c0,3.5-0.8,6.7-3.7,8.9c-0.1,0.1-0.2,0.1-0.2,0.2c0,0.1,0,0.2,0,0.3
		c0,0.7-0.1,1.3-0.2,2c1.7-1,3.2-2.2,4.3-3.9c1.3-2,1.6-4.5,1.7-6.7C50.7,26.5,50.7,26.3,50.7,26.2C50.7,26.2,50.7,26.2,50.7,26.2z"
		/>
	<path d="M39.5,7.8c0.3,0,0.5,0,0.8,0c0.1,0,0.2,0.1,0.3,0.1c0.4,0,0.7,0,1.1,0c0,0,0.1,0,0.1,0c-5.4-4-12.6-5.6-19.3-3.9
		c-1.2,0.3-0.7,2.1,0.5,1.8c5.1-1.3,10.7-0.5,15.3,2.1C38.6,7.7,39.1,7.6,39.5,7.8z"/>
	<path d="M14.4,30.2c0.1-0.1,0.3-0.2,0.4-0.3c0.1-0.1,0.3-0.1,0.4-0.2c0,0,0.1-0.1,0.1-0.1c0.1-0.1,0.3-0.2,0.4-0.3
		c0,0,0-0.1,0.1-0.1c0,0,0.1-0.1,0.1-0.1c-0.9-0.9-1.5-1.8-1.9-2.9c-0.5-1.6-0.5-3.9-0.2-5.5c0.3-1.5,1.2-3,2.7-3.4
		c1.2-0.3,0.7-2.1-0.5-1.8c-3,0.9-4.1,3.9-4.2,6.7c-0.1,1.6,0,3.4,0.5,5C12.8,28.4,13.6,29.3,14.4,30.2z"/>
	<path d="M35,33.6c0-0.6-0.1-1.1-0.2-1.6c-4.2,2-9.2,2.2-13.6,0.5c-0.7-0.3-1.4-0.6-2.2-1c0,0,0,0,0,0c-0.4,0.5-0.8,0.9-1.3,1.3
		c4.4,2.7,9.8,3.4,14.8,2c0.9-0.2,1.7-0.5,2.5-0.9C35,33.8,35,33.7,35,33.6z"/>
	<path d="M32.5,9.6c-0.1-0.2-0.1-0.5-0.1-0.7C27.2,8.1,21.8,9.4,16.9,11c-1.1,0.4-0.7,2.2,0.5,1.8c4.8-1.6,10.7-3,15.9-1.9
		C33,10.4,32.8,10,32.5,9.6z"/>
	<path d="M40.5,16.6c0.5,1.1,0.9,2.4,1.2,3.5c0.1,0,0.2,0.1,0.3,0.2c0.7,0.5,1.4,1.2,1.8,2c0-1.7-0.4-3.5-1.1-5.1
		C42,17,41.3,16.8,40.5,16.6z"/>
	<path d="M51.2,24.9c-0.4-4.2-1.9-8.1-4.4-11.5c-2.3-3.1-5.7-5.7-9.8-4.7c-0.7,0.2-0.4,1.3,0.3,1.1c3.9-1,7.1,2.2,9.1,5.1
		c2,2.9,3.2,6.4,3.6,9.9C50.1,25.6,51.3,25.6,51.2,24.9L51.2,24.9z"/>
	<path d="M33.1,9c2.8,4.1,6.6,7.9,12,7c0.8-0.1,0.4-1.3-0.3-1.1c-4.7,0.8-8.2-2.9-10.6-6.5C33.7,7.7,32.7,8.3,33.1,9L33.1,9z"/>
	<path d="M39.8,12.5c1,0.2,1.9,0.5,2.7,1c0.7,0.4,1.3-0.6,0.6-1c-0.9-0.6-1.9-0.9-3-1.1C39.4,11.2,39.1,12.4,39.8,12.5L39.8,12.5z"
		/>
	<path d="M49.3,15.7c4.3-2.4,2.6-7.8,1-11.3C50,3.7,49,4.3,49.3,5c1.3,2.9,3,7.6-0.6,9.7C48,15.1,48.6,16.1,49.3,15.7L49.3,15.7z"/>
	<path d="M50.4,1.5c-4.4,0.9-4.1,7-3.3,10.3c0.2,0.7,1.3,0.4,1.1-0.3c-0.7-2.6-1.2-8.1,2.5-8.9C51.4,2.5,51.1,1.4,50.4,1.5L50.4,1.5
		z"/>
	<path d="M48.9,9c-0.3,0.5-0.4,1.1-0.3,1.7c0,0.3,0.4,0.5,0.7,0.4c0.3-0.1,0.5-0.4,0.4-0.7c0-0.3,0-0.6,0.2-0.8
		C50.3,8.9,49.2,8.3,48.9,9L48.9,9z"/>
	<path d="M6.2,43.5c-0.2,0-0.4-0.1-0.6-0.2c-0.3-0.3-0.4-0.8,0-1.2l14.4-15.3c0.3-0.3,0.8-0.4,1.2,0c0.3,0.3,0.4,0.8,0,1.2L6.8,43.2
		C6.6,43.4,6.4,43.5,6.2,43.5z"/>
	<path d="M22.7,29.9c-0.1,0-0.3,0-0.4,0c-1.1-0.1-2-0.7-2.8-1.6c-2.3-3.1-0.3-5.9,1-7l3.4-3c0.3-0.3,0.9-0.3,1.2,0.1
		c0.3,0.3,0.3,0.9-0.1,1.2l-3.5,3.1c-0.3,0.2-2.6,2.2-0.7,4.7c0.4,0.6,1,0.9,1.6,1c1.5,0.2,3.2-1.1,3.8-1.6c0.3-0.3,0.9-0.3,1.2,0.1
		c0.3,0.3,0.3,0.9-0.1,1.2C27.3,27.9,25.1,29.9,22.7,29.9z"/>
	<path d="M20.4,28.4c-0.2,0-0.4-0.1-0.6-0.2c-0.3-0.3-0.3-0.9,0-1.2l6.7-6.6c0.3-0.3,0.9-0.3,1.2,0c0.3,0.3,0.3,0.9,0,1.2l-6.7,6.6
		C20.8,28.3,20.6,28.4,20.4,28.4z"/>
	<path d="M36.4,55C36.4,55,36.4,55,36.4,55c-0.5,0-0.8-0.4-0.8-0.8l0.8-35.9c0-0.3,0.2-0.6,0.4-0.7c0.2-0.1,0.6-0.2,0.8,0
		c0.3,0.2,7.1,3.9,6.8,15.1c-0.1,4.5-1.2,7.6-3.3,9c-1.4,1-2.9,0.9-3.6,0.8l-0.3,11.8C37.2,54.6,36.9,55,36.4,55z M37.5,40.7
		C37.6,40.7,37.6,40.7,37.5,40.7c0.1,0,1.4,0.4,2.6-0.5c1.1-0.8,2.4-2.7,2.5-7.7c0.2-7.4-2.9-11.2-4.7-12.8L37.5,40.7z"/>
</g>
</svg>
