<?xml version="1.0" encoding="utf-8"?>
<!-- Generator: Adobe Illustrator 18.0.0, SVG Export Plug-In . SVG Version: 6.00 Build 0)  -->
<!DOCTYPE svg PUBLIC "-//W3C//DTD SVG 1.1//EN" "http://www.w3.org/Graphics/SVG/1.1/DTD/svg11.dtd">
<svg version="1.1" id="Layer_1" xmlns="http://www.w3.org/2000/svg" xmlns:xlink="http://www.w3.org/1999/xlink" x="0px" y="0px"
	 viewBox="0 0 56.9 55" enable-background="new 0 0 56.9 55" xml:space="preserve">
<g>
	<path d="M31.5,16.3c3.4-1.6,5.2-5,4.4-8.7c-0.8-3.4-4.8-5.4-8-4.1c-1,0.4-0.5,2,0.4,1.6c2.3-1,4.9,0.2,5.8,2.5
		c1.1,2.6-0.5,5.4-2.7,6.8c-2,1.3-5.4,1.7-7.4,0c-1.1-1-1-2.9-1-4.2c0-1.6,0.6-3.4,2.3-3.9c1-0.3,0.6-1.8-0.4-1.6
		c-3.8,1-4.1,6.1-3.1,9.2C23.3,17.7,28.6,17.7,31.5,16.3z"/>
	<path d="M53.1,15.1c-5.7-2.3-12-1.4-17.3,1.5c-4.5,2.5-8,6.6-10.5,11.1C23,17.4,15,8.7,4.7,6c-1-0.3-1.4,1.3-0.4,1.6
		c10.4,2.7,18.5,11.9,19.9,22.6c0.1,0.7,1.1,1.2,1.5,0.4c2.4-4.9,5.8-9.4,10.6-12.3c4-2.5,8.9-3.4,13.5-2.5
		c-6.1,1.8-11.1,6.4-14.7,11.6c-2.5,3.6-4.3,7.7-6,11.7c-0.9,2.1-1.7,4.3-2.5,6.5c-0.4,1.2-1.5,5.5-3.1,6
		c-3.6-13-8.9-25.5-15.6-37.2c-0.5-0.9-1.9-0.1-1.4,0.8c6.8,11.8,12,24.3,15.6,37.4c0.1,0.2,0.3,0.5,0.6,0.6
		c3.6,0.5,4.7-5.2,5.6-7.7c1.8-4.6,3.5-9.2,5.8-13.5c4-7.3,10.4-14,19-15.2C54,16.5,53.7,15.3,53.1,15.1z"/>
	<path d="M13.2,20.2c-0.1,0.5,0.2,0.8,0.6,1c0.9,0.3,1.8,0.5,2.7,0.6c0.1,0,0.2,0,0.3,0c0.6,1.3,1.1,2.8,1.5,3.9
		c1,2.6,1.8,5.2,2.5,7.9c0.3,1,1.8,0.6,1.6-0.4c-0.8-3.1-1.8-6.1-2.9-9c-1-2.5-1.9-5.3-4.1-7c-0.8-0.6-1.6,0.8-0.8,1.4
		c0.5,0.4,1,0.9,1.4,1.5c-0.5-0.1-1.1-0.3-1.6-0.4C13.7,19.5,13.3,19.8,13.2,20.2z"/>
	<path d="M23.2,41.3c0.1,1,1.7,1,1.6,0c-0.3-3,2-5.6,3.6-7.8c1.9-2.7,4.1-5.2,6.3-7.7c0.7-0.8-0.4-1.9-1.1-1.1
		c-0.6,0.6-1.1,1.3-1.7,1.9c0-0.7,0-1.3,0.1-2c0.2-1-1.4-1.5-1.6-0.4c-0.2,1.1-0.3,2.2-0.2,3.2c0,0.3,0.2,0.5,0.4,0.6
		c-1.3,1.5-2.5,3-3.6,4.6C25.2,35.2,22.9,38,23.2,41.3z"/>
</g>
</svg>
