<?xml version="1.0" encoding="utf-8"?>
<!-- Generator: Adobe Illustrator 18.0.0, SVG Export Plug-In . SVG Version: 6.00 Build 0)  -->
<!DOCTYPE svg PUBLIC "-//W3C//DTD SVG 1.1//EN" "http://www.w3.org/Graphics/SVG/1.1/DTD/svg11.dtd">
<svg version="1.1" id="Layer_1" xmlns="http://www.w3.org/2000/svg" xmlns:xlink="http://www.w3.org/1999/xlink" x="0px" y="0px"
	 viewBox="0 0 55 55" enable-background="new 0 0 55 55" xml:space="preserve">
<path d="M32.9,52c0.7-9.1-1.1-18.1-5.2-26.3c-3.7-7.3-10.1-14.5-19-13.8C7,12,7,14.6,8.7,14.4c8.5-0.6,13.8,6.6,17.2,13.4
	c3.7,7.4,5.1,15.9,4.4,24.2C30.1,53.7,32.7,53.7,32.9,52L32.9,52z"/>
<path d="M0.1,11.3C4.4,21,11.2,30.6,22.9,30.8c1.7,0,1.7-2.6,0-2.6C12.2,28,6.3,18.8,2.3,10C1.6,8.4-0.6,9.8,0.1,11.3L0.1,11.3z"/>
<path d="M13.2,21.3c1.9,0.7,3.6,1.7,5.1,3c1.3,1.1,3.1-0.7,1.8-1.8c-1.9-1.6-4-2.9-6.3-3.7C12.3,18.3,11.7,20.8,13.2,21.3L13.2,21.3
	z"/>
<path d="M32,31.9c10.1-3.6,8.8-15.5,6.7-23.9c-0.4-1.6-2.9-0.9-2.5,0.7c1.7,6.7,3.6,17.6-4.9,20.7C29.8,30,30.4,32.5,32,31.9
	L32,31.9z"/>
<path d="M40,1.6c-9.8,0.3-11.7,13.3-11.2,20.8c0.1,1.7,2.7,1.7,2.6,0C31,16.6,32,4.5,40,4.2C41.7,4.2,41.7,1.6,40,1.6L40,1.6z"/>
<path d="M33.9,17.1c-0.9,1-1.3,2.2-1.4,3.5c0,1.7,2.6,1.7,2.6,0c0-0.6,0.2-1.2,0.6-1.7c0.5-0.5,0.5-1.3,0-1.8
	C35.3,16.6,34.3,16.5,33.9,17.1L33.9,17.1z"/>
<path d="M40.9,47.8c-0.5-2.4,1.2-6.4,3.6-7.3c2.5-1,5.7-0.6,8.2,0.1c1.6,0.4,2.3-2.1,0.7-2.5c-3.6-0.9-7.9-1.2-11.3,0.7
	c-2.9,1.6-4.4,6.7-3.7,9.7C38.8,50.1,41.3,49.4,40.9,47.8L40.9,47.8z"/>
<path d="M39,51.4c6.4,0,15-3.7,14.8-11.3c-0.1-1.7-2.6-1.7-2.6,0c0.2,6.1-7.2,8.7-12.2,8.7C37.3,48.8,37.3,51.3,39,51.4L39,51.4z"/>
<g>
	<g>
		<path d="M42.1,49c3.2,0,3.2-5,0-5C38.9,44,38.9,49,42.1,49L42.1,49z"/>
	</g>
</g>
<path d="M18.8,43.3c-2.4,0.2-4.7,1.2-4.8,3.9c-0.1,3.2,2.8,3.6,5.3,3.9c2.5,0.3,4.6-0.2,5.1-2.9c0.4-2.6-1.5-4.7-4-4.9
	c-1.7-0.1-1.7,2.5,0,2.6c1.1,0.1,1.6,1,1.5,2.1c-0.2,1.1-1.8,0.7-2.5,0.6c-0.6-0.1-2.3-0.1-2.5-0.8c-0.4-1.5,1-1.7,2.1-1.8
	C20.4,45.7,20.4,43.1,18.8,43.3L18.8,43.3z"/>
<path d="M17.1,41.4c-1.4-0.9-3-1.6-4.7-1.6c-1.5,0-2.5,1.3-2.9,2.6c-0.5,1.5-0.3,3.5,0,5c0.3,1.9,2.7,1.5,4,1.5c1.7,0,1.7-2.6,0-2.6
	c-0.3,0-0.6,0-1,0c-0.2,0-0.3,0-0.5,0c-0.6-0.1-0.6,0-0.1,0.4c-0.3-0.8-0.1-1.9-0.1-2.7c0-1.1,0.2-1.7,1.4-1.5
	c0.9,0.2,1.7,0.6,2.5,1.1C17.2,44.6,18.5,42.3,17.1,41.4L17.1,41.4z"/>
<path d="M16.2,39.9c-0.3-1,1.1-2.7,2.2-2.5c1.6,0.3,0.5,3.2,0.3,4c-0.6,1.6,1.9,2.3,2.5,0.7c0.6-1.6,1-3.3,0.4-4.9
	c-0.5-1.2-1.7-2.4-3.1-2.4c-2.8,0.1-5.7,2.9-4.7,5.8C14.2,42.2,16.7,41.5,16.2,39.9L16.2,39.9z"/>
<path d="M23.2,42.7c0.7-0.5,1.6-0.7,2.2,0c0.3,0.3,0,1.1-0.3,1.2c-1.6,0.5-0.9,3,0.7,2.5c2.1-0.6,2.8-3.1,1.9-5
	c-1.1-2-4.1-2.1-5.8-0.9c-0.6,0.4-0.8,1.1-0.5,1.8C21.8,42.8,22.6,43.1,23.2,42.7L23.2,42.7z"/>
</svg>
