<?xml version="1.0" encoding="utf-8"?>
<!-- Generator: Adobe Illustrator 18.0.0, SVG Export Plug-In . SVG Version: 6.00 Build 0)  -->
<!DOCTYPE svg PUBLIC "-//W3C//DTD SVG 1.1//EN" "http://www.w3.org/Graphics/SVG/1.1/DTD/svg11.dtd">
<svg style="fill: #327317" version="1.1" id="Layer_1" xmlns="http://www.w3.org/2000/svg" xmlns:xlink="http://www.w3.org/1999/xlink" x="0px" y="0px"
	 viewBox="0 0 80.3 55" enable-background="new 0 0 80.3 55" xml:space="preserve">
<g>
	<path d="M28.3,6.8C21.4,8.3,16.1,14,13.5,20.3c-2.7,6.6-2.3,14.1,1.4,20.2c8.6,14.2,29.1,10.7,41.5,4.3c2.4-1.2,4.6-2.8,6-5.1
		c1.4-2.2,1.8-5.1,1.9-7.7c0.2-5.3-1.5-10.7-4.3-15.1C54.1,7.9,42.6,3.7,32.2,6.3c-1.3,0.3-0.8,2.4,0.6,2.1
		c7.1-1.7,14.8-0.1,20.6,4.4c5.6,4.4,8.8,11.5,8.9,18.5c0.1,4-0.9,7.7-4.2,10.1c-3.2,2.4-7.2,3.7-11,4.8c-7.8,2.3-16.6,3.4-24-0.7
		c-7-3.9-10.1-12.3-8.8-19.9c1.3-7.5,7-15,14.7-16.7C30.2,8.6,29.6,6.5,28.3,6.8L28.3,6.8z"/>
	<path d="M26.3,16.3c7-2.3,15.9-4.4,22.8-0.4c3.1,1.8,4.6,6,5.2,9.3c0.7,3.8-0.7,7.2-3.4,9.8c-5.3,5.2-13.3,6.5-20.1,3.9
		c-3.1-1.2-7.2-3.7-8.2-7.1c-0.6-1.9-0.5-4.4-0.2-6.3c0.3-1.7,1.3-3.4,3.1-3.9c1.3-0.4,0.8-2.5-0.6-2.1c-3.4,1-4.7,4.4-4.8,7.7
		c-0.1,1.9,0,3.9,0.6,5.7c0.5,1.7,1.9,3.1,3.1,4.2c5.3,4.8,13,6.5,19.9,4.5c6.6-1.9,12.9-7.2,13-14.5c0-3.5-1.3-7.1-3.3-9.9
		c-2.1-3.1-5.5-4.4-9-5.1c-6.2-1.2-12.7,0.3-18.6,2.2C24.4,14.6,25,16.7,26.3,16.3L26.3,16.3z"/>
	<path d="M4.3,48.6C4.3,48.6,4.3,48.6,4.3,48.6c-0.6,0-1-0.5-0.9-1l1.8-31.7c0-0.5,0.5-0.9,1-0.9c0.5,0,0.9,0.5,0.9,1L5.3,47.7
		C5.3,48.2,4.8,48.6,4.3,48.6z"/>
	<path d="M7.1,17.5c-0.4,0-0.8,0-1.2-0.1c-4.3-1-4.6-4.9-4.2-6.9l0.8-5.1C2.5,4.8,3,4.5,3.5,4.6C4,4.6,4.4,5.1,4.3,5.6l-0.8,5.2
		c-0.1,0.4-0.7,3.8,2.8,4.7c0.8,0.2,1.5,0.1,2.1-0.3c1.4-1,2-3.3,2.2-4.2c0.1-0.5,0.6-0.9,1.1-0.8c0.5,0.1,0.9,0.6,0.8,1.1
		c0,0.2-0.6,3.9-3,5.5C8.8,17.3,8,17.5,7.1,17.5z"/>
	<path d="M6.1,17.2C6.1,17.2,6,17.2,6.1,17.2c-0.6-0.1-1-0.5-0.9-1l1-10.7c0-0.5,0.5-0.9,1-0.9c0.5,0,0.9,0.5,0.9,1L7,16.3
		C7,16.8,6.6,17.2,6.1,17.2z"/>
	<path d="M11.5,12C11.5,12,11.5,12,11.5,12c-0.4,0-0.7-0.4-0.7-0.8L11.4,6c0-0.4,0.4-0.6,0.7-0.6c0.4,0,0.6,0.4,0.6,0.7l-0.6,5.2
		C12.1,11.7,11.8,12,11.5,12z"/>
	<path d="M69.8,48.6C69.8,48.6,69.8,48.6,69.8,48.6c-0.5,0-1-0.4-0.9-1l0.9-41.1c0-0.3,0.2-0.6,0.5-0.8c0.3-0.2,0.6-0.2,0.9,0
		c0.3,0.2,8.1,4.5,7.7,17.3c-0.2,5.2-1.4,8.6-3.7,10.3c-1.6,1.2-3.3,1-4.1,0.9l-0.3,13.4C70.8,48.2,70.3,48.6,69.8,48.6z M71.1,32.3
		C71.2,32.3,71.2,32.3,71.1,32.3c0.1,0,1.6,0.5,3-0.5c1.2-0.9,2.7-3.1,2.9-8.8c0.2-8.5-3.3-12.8-5.4-14.6L71.1,32.3z"/>
</g>
</svg>
