<?xml version="1.0" encoding="utf-8"?>
<!-- Generator: Adobe Illustrator 18.0.0, SVG Export Plug-In . SVG Version: 6.00 Build 0)  -->
<!DOCTYPE svg PUBLIC "-//W3C//DTD SVG 1.1//EN" "http://www.w3.org/Graphics/SVG/1.1/DTD/svg11.dtd">
<svg version="1.1" id="Layer_1" xmlns="http://www.w3.org/2000/svg" xmlns:xlink="http://www.w3.org/1999/xlink" x="0px" y="0px"
	 viewBox="0 0 280 191.7" enable-background="new 0 0 280 191.7" xml:space="preserve">
<g>
	<path d="M173.9,181.7c-26.9,0-58.6-2.6-89.7-5.8c-6.4-0.7-11.5-1.2-14.8-1.4c-7.7-0.6-13.5-8.4-17.8-24c-3.1-11.2-5.4-26.7-7-45.9
		c-2.6-32.5-2-65.2-2-65.6c0-1.9,1.6-3.4,3.5-3.4c1.9,0,3.4,1.6,3.4,3.5c0,0.3-0.6,32.7,2,64.9c4.6,58,15.3,63.3,18.4,63.5
		c3.4,0.3,8.5,0.8,15,1.4c22.2,2.3,59.4,6.1,92.1,5.8c47.6-0.4,60.1-9.2,62.1-16.5c8.9-31.9,7.1-121.8,7.1-122.7
		c0-1.9,1.5-3.5,3.4-3.5c1.9,0,3.5,1.5,3.5,3.4c0.1,3.7,1.9,91.9-7.3,124.7C241.2,176.4,212.3,181.7,173.9,181.7z"/>
	<path d="M163.9,52c-54.7,0-110.9-9-114.5-9.5c-1.9-0.3-3.1-2.1-2.8-3.9c0.3-1.9,2.1-3.1,3.9-2.8c1.3,0.2,130.7,20.9,187.4,0.2
		c1.8-0.7,3.8,0.3,4.4,2.1c0.7,1.8-0.3,3.8-2.1,4.4C220.4,49.6,192.3,52,163.9,52z"/>
	<path d="M50,35c-1.3,0-2.6-0.8-3.1-2.1c-0.8-1.7,0-3.8,1.8-4.5c0.9-0.4,21.7-9.4,55.9-14.9C136,8.5,185.1,5.6,240.1,21
		c1.8,0.5,2.9,2.4,2.4,4.2c-0.5,1.8-2.4,2.9-4.2,2.4c-53.7-15-101.7-12.3-132.4-7.4c-33.4,5.4-54.3,14.4-54.5,14.5
		C50.9,35,50.5,35,50,35z"/>
	<path d="M24.5,88.4c-0.9,0-1.8-0.4-2.5-1.1C6,70.1,0.1,55.9,4.4,45.2c6.2-15.4,30.6-16.9,31.6-17c1.9-0.1,3.5,1.3,3.6,3.2
		c0.1,1.9-1.3,3.5-3.2,3.6l0,0c-0.2,0-21.1,1.4-25.6,12.7c-3.2,8,2.4,20,16.2,34.9c1.3,1.4,1.2,3.6-0.2,4.9
		C26.1,88.1,25.3,88.4,24.5,88.4z"/>
	<path d="M269.7,70.5c-0.6,0-1.2-0.2-1.8-0.5c-1.6-1-2.1-3.1-1.1-4.7c6-9.7,7.8-17.6,5.2-23.4c-3.6-8.1-14.9-10.1-15-10.1
		c-1.9-0.3-3.1-2.1-2.8-4c0.3-1.9,2.1-3.1,3.9-2.8c0.6,0.1,14.9,2.6,20.1,14c3.6,8,1.8,18.1-5.6,29.9
		C272,69.9,270.9,70.5,269.7,70.5z"/>
	<path d="M164.2,35.7c-1.1,0-2.2-0.6-2.9-1.6c-3.2-4.9-7-7.5-11.6-8c-8-0.8-15.8,5.2-16.8,6.3c-1.1,1.4-3.2,1.7-4.6,0.6
		c-1.6-1.1-1.9-3.2-0.8-4.8c1.1-1.6,10.6-9.3,21.4-9.1c5.1,0.1,12.5,2.1,18.4,11.1c1,1.6,0.6,3.7-1,4.8
		C165.5,35.5,164.9,35.7,164.2,35.7z"/>
	<path d="M236.6,101.2c-0.2,0-0.3,0-0.5,0c-1.9-0.3-3.2-2-2.9-3.9l2.6-19c0.3-1.9,2-3.2,3.9-2.9c1.9,0.3,3.2,2,2.9,3.9l-2.6,19
		C239.7,99.9,238.2,101.2,236.6,101.2z"/>
	<path d="M231.3,143.7c-0.3,0-0.5,0-0.8-0.1c-1.8-0.4-3-2.3-2.5-4.1l5.2-21.6c0.4-1.8,2.3-3,4.1-2.5c1.8,0.4,3,2.3,2.5,4.1
		l-5.2,21.6C234.3,142.6,232.9,143.7,231.3,143.7z"/>
	<path d="M207.7,163.3c-1.5,0-2.9-1-3.3-2.5c-0.5-1.8,0.5-3.7,2.3-4.3l20.3-5.9c1.8-0.5,3.7,0.5,4.3,2.3s-0.5,3.7-2.3,4.3l-20.3,5.9
		C208.4,163.3,208.1,163.3,207.7,163.3z"/>
</g>
</svg>
