<?xml version="1.0" encoding="utf-8"?>
<!-- Generator: Adobe Illustrator 18.0.0, SVG Export Plug-In . SVG Version: 6.00 Build 0)  -->
<!DOCTYPE svg PUBLIC "-//W3C//DTD SVG 1.1//EN" "http://www.w3.org/Graphics/SVG/1.1/DTD/svg11.dtd">
<svg version="1.1" id="Layer_1" xmlns="http://www.w3.org/2000/svg" xmlns:xlink="http://www.w3.org/1999/xlink" x="0px" y="0px"
	 viewBox="0 0 125 106" enable-background="new 0 0 125 106" xml:space="preserve">
<path d="M39.1,3.1C22.9,6.6,10.2,19.9,4.2,34.9c-6.3,15.7-5.5,33.2,3.3,47.8c20.3,33.5,68.7,25.3,98,10.2
	c5.6-2.9,10.8-6.6,14.3-11.9c3.4-5.3,4.2-12,4.5-18.2c0.5-12.6-3.4-25.2-10.2-35.7C100,5.6,72.8-4.3,48.2,1.8
	c-3.2,0.8-1.8,5.7,1.3,4.9c16.7-4.1,35-0.3,48.6,10.4c13.3,10.4,20.8,27,21.1,43.8c0.1,9.3-2.1,18.2-9.9,23.9
	c-7.6,5.6-17.1,8.8-26,11.4c-18.5,5.4-39.2,8-56.7-1.8c-16.4-9.1-23.9-29-20.7-47C8.9,29.5,22.2,11.9,40.4,7.9
	C43.6,7.3,42.3,2.4,39.1,3.1L39.1,3.1z"/>
<path d="M48.3,83.8c-0.4,0-0.7-0.1-1-0.3c-0.8-0.4-1.2-1.2-1.2-2.1l3.7-58.6c0.1-0.8,0.6-1.6,1.3-1.9c0.8-0.3,1.6-0.2,2.3,0.3
	l35.8,28c0.5,0.4,0.9,1.1,0.9,1.8c0,0.7-0.3,1.3-0.9,1.8L49.7,83.3C49.3,83.6,48.8,83.8,48.3,83.8z M54,27.3l-3.1,49.4l33.2-25.8
	L54,27.3z"/>
</svg>
