<svg width="233.31" height="70.31" version="1.1" viewBox="0 0 61.729 18.603" xmlns="http://www.w3.org/2000/svg">
	<g transform="translate(-.12871 -278.06)">
		<path d="m1.1893 279.76c3.1757-1.0431 14.136-1.5 19.621-1.0624s5.9231 0.91135 10.242 1.4281 10.896-0.79685 14.808-1.094 8.5034-0.64019 10.995 0.48394c2.4918 1.1241 4.9292 9.4013 4.4396 12.383s-5.5247 2.8065-7.4397 2.728c-1.915-0.0785-7.8911-0.1826-10.862-0.1059-2.9713 0.0767-8.2902 1.3147-13.312 1.3193-5.0218 5e-3 -8.577-2.0537-13.253-1.5866s-7.5673 0.0674-10.859-1.3612c-3.2916-1.4287-3.3827-4.5224-3.9604-5.8455-1.1219-2.6554-1.3501-6.3954-0.41908-7.2871z" stroke="#000" stroke-width=".26458px"/>
	</g>
</svg>
